<?xml version="1.0" encoding="UTF-8"?>
<!DOCTYPE svg PUBLIC "-//W3C//DTD SVG 1.1//EN" "http://www.w3.org/Graphics/SVG/1.1/DTD/svg11.dtd">
<!-- Creator: CorelDRAW 2021 (64-Bit) -->
<svg xmlns="http://www.w3.org/2000/svg" xml:space="preserve" width="500mm" height="500mm" version="1.1" style="shape-rendering:geometricPrecision; text-rendering:geometricPrecision; image-rendering:optimizeQuality; fill-rule:evenodd; clip-rule:evenodd"
viewBox="0 0 50000 50000"
 xmlns:xlink="http://www.w3.org/1999/xlink"
 xmlns:xodm="http://www.corel.com/coreldraw/odm/2003">
 <defs>
  <style type="text/css">
   <![CDATA[
    .fil0 {fill:#030303}
   ]]>
  </style>
 </defs>
 <g id="图层_x0020_1">
  <metadata id="CorelCorpID_0Corel-Layer"/>
  <path class="fil0" d="M5290.02 48960.3c-735.12,0 -1382.96,97.79 -1942.68,-288.07 -731.46,-504.45 -495.24,-1893.31 412.2,-2029.14 483.78,-72.16 609.33,162.52 944.77,208.7 29.05,-473.85 -41.1,-502.79 -312.29,-709.6 41.82,-107.01 598.47,-1046.1 -237.52,-783.9 -159.09,49.84 -243.42,126.97 -352.79,176.81 -193.7,-254.29 -249.8,-362.36 -717.99,-313.46 118.58,413.15 404.29,736.53 109.84,1265.31 -184.61,332.25 -564.8,602.25 -1107.87,546.14 -1101.73,-113.26 -1061.1,-1188.18 -1055.79,-2269.6 67.21,-13150.62 34.84,-26327.23 0.71,-39479.5 -2.13,-773.97 -164.17,-2162 1010.55,-2310.94 541.42,-68.74 943.46,177.75 1137.76,510 315.7,539.76 33.77,849.33 -95.32,1296.97 478.94,49.6 506.93,-59.41 718.11,-312.52 146.1,60 406.42,267.75 662.13,204.21 353.85,-87.52 -14.06,-667.21 -72.17,-812.48 243.54,-179.53 379.37,-275.2 296.22,-723.78 -200.31,57.28 -1013.03,583.23 -1546.06,-165.35 -370.87,-520.63 -278.27,-1310.2 204.21,-1642.8 552.87,-380.9 1180.04,-286.18 1898.98,-286.18 13184.63,-1.53 26325.21,-1.53 39509.96,0 718.7,0 1346.11,-94.72 1898.74,286.18 482.6,332.6 575.32,1122.17 204.33,1642.8 -533.03,748.58 -1345.74,222.63 -1546.06,165.35 -82.79,448.58 52.8,544.25 296.1,723.78 -58.11,145.27 -425.9,724.96 -72.04,812.48 255.59,63.54 516.02,-144.21 662,-204.21 211.18,253.11 239.18,362.12 718.23,312.52 -129.09,-447.64 -411.02,-757.21 -95.43,-1296.97 194.53,-332.25 596.45,-578.74 1137.99,-510 1174.49,148.94 1012.56,1536.97 1010.43,2310.94 -33.66,13152.39 -66.49,26328.76 0.71,39479.5 5.32,1081.42 45.95,2156.34 -1055.79,2269.6 -542.83,56.11 -923.03,-213.89 -1107.99,-546.14 -294.21,-528.78 -8.5,-852.16 109.85,-1265.31 -468.08,-48.9 -524.06,59.17 -718,313.46 -109.25,-49.84 -193.46,-126.97 -352.79,-176.81 -835.75,-262.2 -279.33,676.89 -237.4,783.9 -271.18,206.81 -341.34,235.75 -312.29,709.6 335.44,-46.18 460.87,-280.86 944.65,-208.7 907.44,135.83 1143.78,1524.69 412.2,2029.14 -559.72,385.86 -1207.44,288.07 -1942.55,288.07 -13139.99,0 -26279.98,0 -39419.85,0zm43174.62 -44193.05l0 40282.25 -1.64 0c12.63,419.98 12.22,952.11 -115.46,1167.45 -170.2,287.25 -747.16,477.88 -1075.04,163.11 -350.31,-336.85 -43.7,-1075.86 447.17,-924.92 362.95,111.85 254.29,679.73 -107.48,625.87 -104.18,-15.47 -195.95,-103.82 -257.48,-139.96 123.3,577.32 725.43,324.8 818.5,49.49 13.15,-38.83 24.42,-372.67 34.06,-941.04l-6.27 0 0 -36763.62c-13.61,-2627.49 -27.98,-4280.04 -40.78,-4309.49 -109.49,-252.4 -688.58,-474.33 -806.93,85.04l291.26 -144.09c357.05,-5.91 431.46,558.31 35.79,639.33 -475.75,97.68 -762.05,-627.05 -383.98,-955.87 358.58,-312.4 925.27,-83.85 1082.24,243.78 96.9,202.38 98.83,571.91 86.04,922.67zm-46933.91 -162.3l0.01 0c-5.41,-298.05 8.54,-589.09 90.54,-760.37 156.97,-327.63 723.66,-556.18 1082.24,-243.78 378.19,328.82 91.66,1053.55 -383.97,955.87 -395.56,-81.02 -321.26,-645.24 35.9,-639.33l291.26 144.09c-118.58,-559.37 -697.68,-337.44 -807.16,-85.04 -10.93,25.14 -28.72,3386.67 -45.18,8194.52l0 32870.23c8.93,574.95 19.56,912.09 32.18,949.4 92.96,275.31 695.55,527.83 818.63,-49.49 -61.66,36.14 -153.43,124.49 -257.48,139.96 -361.78,53.86 -470.56,-514.02 -107.25,-625.87 490.75,-150.94 797.36,588.07 446.93,924.92 -327.87,314.77 -904.96,124.14 -1075.04,-163.11 -127.59,-215.34 -127.97,-747.47 -115.44,-1167.45l-6.17 0 0 -40444.55zm3127.99 -4088.24c-1383.31,2.48 -2122.09,631.77 -1942.21,2066.69 -134.29,-66.38 -391.29,-394.01 -502.32,-553.46 -345.59,-495 -844.49,-2040.71 -1528.93,-1347.87 -851.93,861.96 1497.87,1322.24 1855.15,2072.71 -309.8,-40.16 -615.12,-78.66 -925.98,24.57 -1198.94,398.38 -1089.33,1652.48 -1103.27,2826.14l3.78 38514.42c1.54,744.21 -106.53,1814.52 236.69,2369.4 339.22,548.51 852.17,944.89 1791.26,743.74 -154.13,319.96 -895.98,772.44 -1229.76,922.21 -402.87,180.82 -1146.02,624.92 -627.17,1163.26 680.32,706.19 1173.9,-832.2 1509.1,-1319.99 113.74,-165.12 345.35,-469.49 522.87,-583.94 -197.24,1323.31 536.69,2069.53 1805.31,2070.12 13659.09,8.38 27294.31,8.38 40953.4,0 1268.62,-0.59 2002.55,-746.81 1805.31,-2070.12 177.4,114.45 409.13,418.82 522.87,583.94 335.32,487.79 828.78,2026.18 1509.1,1319.99 518.97,-538.34 -224.41,-982.44 -627.17,-1163.26 -333.78,-149.77 -1075.74,-602.25 -1229.76,-922.21 939.09,201.15 1452.16,-195.23 1791.26,-743.74 343.34,-554.88 235.16,-1625.19 236.69,-2369.4l3.9 -38514.42c-13.94,-1173.66 95.43,-2427.76 -1103.5,-2826.14 -310.75,-103.23 -615.95,-64.73 -925.87,-24.57 357.28,-750.47 2707.08,-1210.75 1855.16,-2072.71 -684.45,-692.84 -1183.23,852.87 -1528.94,1347.87 -111.14,159.45 -368.15,487.08 -502.32,553.46 179.88,-1434.92 -559.02,-2064.21 -1942.09,-2066.69 -13556.8,-23.5 -27125.88,-23.5 -40682.56,0zm41352.84 2158.82c306.14,-45.12 426.85,-290.79 273.54,-600.83 -138.54,-278.62 -379.84,-251.34 -763.34,-249.8 -13674.8,52.09 -27368.84,52.09 -41043.63,0 -383.51,-1.54 -624.81,-28.82 -763.11,249.8 -153.66,310.04 -32.72,555.71 273.3,600.83 -64.25,-111.5 -191.33,-238.23 -97.91,-424.02 229.72,-458.26 993.9,124.37 378.19,568.11 -570.95,411.38 -1133.03,-344.17 -739.37,-940.27 179.65,-271.89 385.87,-313.82 813.19,-312.76 13773.65,0.71 27541.39,0.71 41315.04,0 427.33,-1.06 633.43,40.87 813.07,312.76 393.67,596.1 -168.42,1351.65 -739.13,940.27 -615.94,-443.74 148.35,-1026.37 378.19,-568.11 93.31,185.79 -33.9,312.52 -98.03,424.02zm-625.16 45500.4c376.89,0.47 680.2,75.47 860.55,-192.05 206.22,-305.2 97.32,-611.81 -233.38,-655.39 389.88,651.85 -289.49,661.41 -436.3,457.79 -246.74,-342.28 143.5,-705.59 486.97,-708.9 731.45,-6.96 767.83,1356.5 -226.89,1356.97 -13891.65,0 -27783.17,0 -41674.81,0 -994.73,-0.47 -958.23,-1363.93 -226.78,-1356.97 343.35,3.31 733.59,366.62 486.85,708.9 -146.81,203.62 -826.18,194.06 -436.18,-457.79 -330.82,43.58 -439.72,350.19 -233.5,655.39 180.35,267.52 483.78,192.52 860.79,192.05 13590.81,0.94 27181.75,0.82 40772.68,0zm2535 -45621.7c165.83,-314.53 1412.01,-892.56 1552.32,-238.35 84.69,393.66 -207.52,643.11 -574.61,491.81 -429.56,-176.92 -362.36,-281.33 -977.71,-253.46zm22.2 44891.78c528.19,42.99 554.06,-74.18 921.5,-239.29 364.13,-163.82 675.23,34.72 616.3,439.72 -94.02,647.6 -1338.9,203.5 -1537.8,-200.43zm-454.6 -45362.8c27.28,-570.12 -69.92,-528.31 -241.66,-947.13 -324.44,-790.51 1054.37,-947.83 702.64,191.22 -80.9,261.97 -212.48,630.83 -460.98,755.91zm-45410.52 471.02c-165.94,-314.53 -1412,-892.56 -1552.32,-238.35 -84.57,393.66 207.4,643.11 574.61,491.81 429.45,-176.92 362.36,-281.33 977.71,-253.46zm-22.08 44891.78c-528.19,42.99 -554.18,-74.18 -921.5,-239.29 -364.49,-163.82 -675.59,34.72 -616.3,439.72 93.9,647.6 1338.66,203.5 1537.8,-200.43zm454.6 -45362.8c-27.4,-570.12 69.81,-528.31 241.66,-947.13 324.21,-790.51 -1054.49,-947.83 -702.76,191.22 80.91,261.97 212.36,630.83 461.1,755.91zm-459.56 46591.5c-109.61,332.59 -116.11,745.51 277.08,806.22 403.35,62.48 575.32,-258.78 428.74,-616.77 -169.49,-415.04 -285.59,-379.26 -242.01,-951.38l-463.81 761.93zm45897.01 0c109.6,332.59 116.1,745.51 -277.09,806.22 -403.35,62.48 -575.31,-258.78 -428.86,-616.77 169.61,-415.04 285.71,-379.26 242.01,-951.38l463.94 761.93z"/>
 </g>
</svg>
