<?xml version="1.0" encoding="UTF-8"?>
<!DOCTYPE svg PUBLIC "-//W3C//DTD SVG 1.1//EN" "http://www.w3.org/Graphics/SVG/1.1/DTD/svg11.dtd">
<!-- Creator: CorelDRAW 2021 (64-Bit) -->
<svg xmlns="http://www.w3.org/2000/svg" xml:space="preserve" width="500mm" height="500mm" version="1.1" style="shape-rendering:geometricPrecision; text-rendering:geometricPrecision; image-rendering:optimizeQuality; fill-rule:evenodd; clip-rule:evenodd"
viewBox="0 0 50000 50000"
 xmlns:xlink="http://www.w3.org/1999/xlink"
 xmlns:xodm="http://www.corel.com/coreldraw/odm/2003">
 <defs>
  <style type="text/css">
   <![CDATA[
    .fil0 {fill:black}
    .fil1 {fill:black;fill-rule:nonzero}
   ]]>
  </style>
 </defs>
 <g id="图层_x0020_1">
  <metadata id="CorelCorpID_0Corel-Layer"/>
  <g id="_2568815712384">
   <path class="fil0" d="M3690.3 47330.21l47.62 127.63c0,0 80.01,619.09 40.01,1070.56 0,0 -40.01,245.73 -108.58,325.74 0,0 -314.32,175.25 -215.26,-777.21 0,0 -295.26,-264.78 -373.36,186.69l9.52 560.04 -264.78 0 -28.58 -647.67c0,0 -127.63,-226.69 -569.57,401.94l-373.36 392.41 -382.89 -480.04c0,0 1363.92,-885.79 489.56,-864.83l-255.25 9.52 20.95 -295.26 1040.09 40c0,0 354.31,-422.89 -1011.52,-422.89l-38.09 -295.26c0,0 1560.12,-99.06 1973.49,668.63z"/>
   <path class="fil1" d="M1850.15 49031.3l-438.13 -550.52 36.19 -24.77c342.89,-220.97 805.78,-592.43 763.87,-727.68 -13.33,-43.81 -102.86,-64.76 -249.54,-64.76l-299.07 11.43 24.76 -375.27 1059.14 40c13.33,-24.76 34.28,-72.39 9.52,-121.91 -38.1,-83.82 -220.97,-222.88 -1001.99,-222.88l-34.28 0 -49.53 -369.55 41.91 -3.81c64.76,-3.81 1592.51,-89.53 2011.59,689.58l1.9 3.81 49.53 127.63c1.91,17.14 80.01,638.14 41.91,1089.61 -5.71,28.57 -43.81,262.88 -118.11,346.69l-9.52 9.53c-30.48,15.24 -97.15,32.38 -158.11,-7.62 -121.91,-80.01 -161.92,-344.79 -120.01,-786.73 -36.19,-28.58 -110.48,-70.48 -169.54,-49.53 -59.05,19.05 -100.96,97.15 -123.82,226.69l11.43 592.43 -342.88 0 -30.48 -674.35c-5.71,-5.71 -22.86,-15.24 -41.91,-15.24 -47.62,0 -186.68,43.82 -455.27,426.71l-409.56 430.51zm-321.93 -533.38l0 0 327.64 413.37 342.89 -360.03c209.54,-300.98 384.79,-455.28 516.23,-455.28 3.81,0 5.72,0 9.53,0 72.38,3.81 102.86,55.25 106.67,60.96l3.81 17.14 28.58 609.58 186.68 0 -7.62 -520.04c26.67,-167.64 85.72,-262.88 173.35,-293.36 127.63,-41.91 259.06,72.39 264.78,78.1l15.24 13.33 -3.81 19.05c-59.05,575.29 38.1,704.82 83.82,733.4 28.57,20.95 57.14,13.33 68.57,7.62 47.63,-62.87 83.82,-236.21 95.25,-299.08 38.1,-440.03 -40.01,-1053.42 -40.01,-1059.13l-45.71 -118.1c-360.03,-662.92 -1643.95,-655.3 -1893.49,-645.77l28.57 217.16c609.58,3.81 958.18,93.34 1040.09,268.59 53.34,114.3 -28.58,215.26 -32.39,219.07l-13.33 15.24 -1021.04 -40.01 -13.33 213.35 211.44 -7.62c194.31,-5.71 300.98,34.29 327.65,120.01 68.58,222.88 -558.14,659.11 -760.06,792.45z"/>
  </g>
  <g id="_2568815711952">
   <path class="fil0" d="M8932.64 48450.3c-361.94,-285.74 -824.83,-274.31 -744.83,177.16 0,0 382.89,805.78 1619.18,0 0,0 569.57,-422.9 158.11,-1257.25 0,0 -796.26,-1563.94 -2436.39,264.78 0,0 -2198.28,2053.5 -2935.48,579.1 0,0 -401.94,-1257.25 784.83,-933.41 0,0 158.11,236.21 -196.21,451.46 0,0 718.16,560.05 961.98,-342.88 0,0 59.06,-805.78 -735.29,-885.79 0,0 -1228.68,-68.58 -1325.83,1181.05 0,0 -68.57,1611.56 1963.97,1198.19 0,0 550.53,-68.57 2396.39,-1552.5 1139.14,-777.21 2002.07,1405.83 489.57,1120.09z"/>
   <path class="fil1" d="M8839.29 49025.58c-85.72,0 -165.72,-11.43 -241.92,-32.38 -320.03,-91.44 -440.04,-339.08 -445.75,-348.6l-3.81 -11.43c-40,-232.4 60.96,-331.46 123.82,-369.55 161.92,-95.25 440.03,-34.29 678.15,150.48 360.03,64.77 613.38,-9.52 710.53,-213.35 112.39,-232.4 -3.81,-600.05 -259.07,-819.11 -270.49,-234.31 -611.47,-240.02 -937.21,-19.05 -1830.63,1472.5 -2390.68,1556.32 -2413.54,1558.22 -697.2,142.87 -1230.57,62.86 -1581.08,-236.21 -447.65,-380.98 -426.7,-977.22 -426.7,-1001.98 100.96,-1274.39 1356.3,-1217.25 1367.73,-1217.25 824.83,81.91 773.4,918.17 773.4,925.79 -78.1,293.36 -211.45,468.61 -394.32,529.57 -299.07,97.15 -617.19,-146.68 -630.53,-156.2l-45.72 -36.2 49.53 -28.57c116.2,-72.39 186.68,-152.39 205.73,-238.11 15.24,-70.49 -3.81,-123.82 -15.24,-146.68 -314.31,-83.82 -535.28,-59.06 -661,72.38 -238.12,249.55 -62.87,809.59 -60.96,815.31 137.15,276.21 342.89,441.94 609.57,489.56 908.65,165.73 2247.81,-1074.37 2261.14,-1085.8 586.72,-655.29 1139.14,-956.27 1632.52,-889.6 573.38,74.29 853.4,611.48 864.83,634.34 422.89,855.31 -161.92,1302.96 -167.63,1306.77 -375.27,245.74 -706.73,367.65 -992.47,367.65zm-615.28 -411.46l0 0c19.04,32.38 133.34,230.5 396.22,302.88 312.41,87.63 702.91,-20.95 1165.81,-321.93 20.95,-15.24 535.28,-413.37 142.87,-1207.72 -1.91,-5.71 -272.41,-523.85 -805.78,-592.43 -468.61,-59.05 -994.37,230.5 -1563.94,866.74 -59.05,53.34 -1386.78,1280.11 -2331.62,1108.66 -291.45,-53.33 -518.14,-234.3 -670.53,-539.09 -9.53,-30.48 -192.4,-615.29 78.1,-899.12 148.58,-154.3 401.94,-184.78 754.35,-89.53l13.33 3.81 9.53 13.33c1.9,3.81 60.95,93.34 34.28,217.16 -22.85,95.25 -87.62,180.97 -194.3,257.17 93.34,59.05 314.31,177.16 512.43,112.39 158.1,-53.34 272.4,-209.54 342.88,-466.71 0,-24.76 43.81,-761.96 -702.91,-836.26 -47.63,-3.81 -1188.67,-51.43 -1282.01,1142.96 -1.91,5.71 -19.05,582.9 398.12,939.12 331.46,281.93 841.98,356.22 1518.22,219.07 7.62,-1.91 573.38,-95.25 2379.25,-1544.89 358.12,-245.74 735.3,-236.21 1034.37,22.86 285.74,243.83 407.65,645.76 278.12,912.45 -66.68,139.06 -259.07,356.22 -803.88,253.36l-17.14 -7.62c-213.35,-165.73 -462.9,-228.59 -596.24,-150.49 -100.96,60.96 -104.77,186.68 -89.53,283.83z"/>
  </g>
  <g id="_2568815712960">
   <path class="fil0" d="M2177.8 41423.05c245.73,394.32 196.2,855.31 -245.74,727.68 0,0 -765.78,-451.46 146.68,-1611.56 0,0 481.94,-521.94 1266.77,-49.52 0,0 1483.93,942.93 -489.56,2417.34 0,0 -2249.71,1996.35 -855.31,2861.18 0,0 1217.24,529.57 1011.51,-699.1 0,0 -226.69,-177.16 -460.99,158.11 0,0 -491.47,-767.69 420.99,-923.89 0,0 805.78,9.53 805.78,815.31 0,0 -40.01,1228.67 -1285.82,1209.62 0,0 -1611.56,-80.01 -1011.51,-2074.46 0,0 118.1,-540.99 1767.76,-2230.66 874.36,-1072.46 -1217.24,-2133.5 -1070.56,-600.05z"/>
   <path class="fil1" d="M2520.68 46366.32c-9.52,0 -19.05,0 -30.48,0 -24.76,-1.91 -617.19,-34.29 -956.27,-516.24 -268.59,-377.17 -299.07,-918.17 -91.43,-1607.75 3.81,-19.05 139.06,-567.66 1777.29,-2247.8 354.31,-432.42 160.01,-803.88 59.05,-942.93 -194.3,-270.5 -550.52,-419.09 -788.64,-329.55 -209.54,78.1 -308.59,323.83 -274.31,687.67 160.02,262.88 194.31,548.62 81.92,697.2 -43.82,59.05 -150.49,146.68 -377.18,81.91l-9.52 -3.81c-9.53,-5.71 -243.83,-148.58 -304.79,-474.32 -64.77,-340.98 85.72,-742.92 441.94,-1196.29 7.62,-7.62 514.33,-541 1318.2,-59.05 22.86,15.24 531.48,344.79 552.43,927.69 19.05,502.9 -331.46,1026.75 -1040.08,1556.32 -11.43,9.52 -1369.64,1226.77 -1291.54,2143.03 22.86,268.6 169.54,487.66 434.32,651.48 0,0 541,230.5 815.31,17.15 142.87,-112.39 190.49,-333.36 139.06,-657.2 -22.86,-15.24 -76.2,-41.91 -146.68,-28.57 -85.72,13.33 -169.54,74.29 -245.74,184.78l-34.29 47.62 -32.38 -49.53c-9.52,-15.24 -224.78,-358.12 -97.15,-647.67 76.2,-173.35 260.97,-287.64 546.71,-337.17 30.48,0 851.5,28.57 851.5,855.31 0,13.33 -55.24,1247.72 -1297.25,1247.72zm125.73 -5749.05l0 0c245.73,0 523.85,148.59 697.2,388.61 110.48,154.3 325.74,563.85 -64.77,1041.99 -1615.37,1655.37 -1758.24,2209.7 -1760.15,2215.42 -200.01,666.72 -173.34,1184.86 78.11,1541.08 316.21,449.56 891.5,483.85 897.21,483.85 9.53,0 19.05,0 28.58,0 1165.81,0 1215.33,-1122 1217.24,-1171.53 0,-754.35 -735.3,-773.4 -767.68,-775.3 -251.45,43.81 -415.28,142.87 -480.04,291.45 -85.72,190.49 11.43,422.89 62.86,521.95 81.91,-97.15 169.54,-154.3 262.88,-167.63 127.63,-19.05 215.25,49.52 219.06,51.43l11.43 9.52 1.91 15.24c60.96,363.84 5.71,617.2 -165.73,750.54 -310.5,241.93 -876.26,0 -899.12,-9.52 -293.36,-180.97 -451.47,-420.99 -476.23,-714.35 -81.91,-956.27 1262.96,-2162.08 1320.11,-2211.61 689.58,-516.23 1028.65,-1017.22 1011.51,-1493.45 -20.96,-541 -510.52,-859.12 -516.23,-862.93 -746.73,-447.66 -1198.2,22.86 -1217.25,43.81 -339.07,430.51 -481.94,811.5 -424.79,1129.62 49.52,268.59 236.21,400.03 264.78,419.08 95.25,26.67 219.07,36.19 287.64,-55.24 93.34,-121.92 55.25,-380.99 -91.43,-615.29l-5.72 -17.15c-53.34,-552.42 180.97,-723.86 323.84,-779.11 57.15,-20.95 120.01,-30.48 184.78,-30.48z"/>
  </g>
  <g id="_2568815709888">
   <path class="fil0" d="M4583.71 45796.75c0,0 1659.18,-569.57 2101.12,786.73 0,0 619.1,-441.94 -382.89,-1169.62 0,0 -441.94,-344.79 -1148.66,-264.79 0,0 323.83,-1809.67 -973.42,-1485.83 0,0 -283.83,59.05 -451.46,198.11 1070.56,245.73 824.83,1110.57 855.31,1935.4z"/>
   <path class="fil1" d="M6663.88 46646.34l-17.15 -51.43c-110.48,-342.89 -312.4,-586.72 -598.14,-729.59 -621,-310.5 -1443.93,-34.28 -1451.55,-30.47l-51.43 17.14 -1.91 -53.34c-5.71,-144.77 -1.9,-291.45 1.91,-434.32 15.24,-680.06 28.57,-1268.67 -824.83,-1464.88l-78.1 -19.05 60.95 -49.53c173.35,-142.87 457.19,-201.92 468.61,-205.73 325.75,-80.01 582.91,-36.19 763.88,131.44 377.17,352.41 293.35,1137.24 262.88,1346.78 685.77,-59.06 1108.66,264.78 1127.71,280.02 388.6,281.93 586.71,560.05 586.71,822.92 -1.9,259.07 -198.11,401.94 -205.73,409.56l-43.81 30.48zm-1318.21 -1009.61l0 0c238.12,0 499.09,38.1 737.21,158.11 289.55,144.78 497.18,386.7 619.1,720.06 51.43,-53.34 131.44,-160.01 131.44,-310.5 1.9,-232.4 -190.5,-495.28 -554.34,-758.16 -5.71,-5.71 -440.03,-335.26 -1121.99,-259.07l-51.44 5.72 7.62 -51.43c1.91,-9.53 165.73,-956.27 -230.49,-1327.73 -160.01,-148.59 -392.41,-186.68 -693.39,-112.39 -3.81,1.9 -209.54,45.71 -367.65,142.87 830.54,228.59 817.21,857.21 801.97,1522.03 -1.9,123.82 -5.71,251.44 -1.9,377.17 112.39,-32.38 394.31,-106.68 723.86,-106.68z"/>
  </g>
  <g id="_2568815709840">
   <path class="fil0" d="M5829.52 44331.86c0,-196.2 158.11,-352.41 354.32,-352.41 196.2,-11.42 354.31,146.68 354.31,342.89 9.53,196.21 -148.58,354.32 -344.79,363.84 -196.2,0 -352.41,-158.11 -363.84,-354.32z"/>
   <path class="fil1" d="M6195.27 44726.18c-217.16,0 -392.42,-173.34 -403.84,-392.41l0 -1.91c0,-217.16 175.25,-392.41 392.41,-392.41 102.86,-5.71 200.01,30.48 274.31,100.96 74.29,72.39 118.1,175.25 118.1,281.93 11.43,211.45 -160.01,392.41 -380.98,403.84zm-325.74 -394.32l0 0c9.52,177.16 152.39,314.32 323.83,314.32 179.07,-7.62 314.31,-150.49 304.79,-321.93 0,-87.63 -34.29,-167.64 -95.25,-226.69 -57.14,-55.24 -137.15,-85.72 -217.16,-80.01 -175.25,0 -316.21,140.97 -316.21,314.31z"/>
  </g>
  <g id="_2568815711472">
   <path class="fil0" d="M47410.38 46307.26l116.2 -59.05c0,0 609.57,-146.68 1070.56,-146.68 0,0 245.74,9.53 323.84,78.11 0,0 217.16,285.73 -744.82,285.73 0,0 -226.69,323.84 224.78,354.32l560.04 -70.48 30.48 266.68 -649.58 97.16c0,0 -205.73,148.58 472.42,521.94l432.42 333.36 -441.94 422.9c0,0 -1021.04,-1257.25 -914.36,-382.89l40 245.73 -295.26 9.53 -78.1 -1041.99c0,0 -451.47,-304.79 -314.31,1051.51l-285.74 78.1c0,0 -255.26,-1542.98 453.37,-2043.98z"/>
   <path class="fil1" d="M48800.97 48448.39l-26.67 -32.38c-240.02,-293.36 -621,-678.15 -777.21,-678.15 -9.52,0 -19.05,1.9 -26.66,5.71 -43.82,17.15 -59.06,112.39 -40.01,259.07l45.72 289.55 -377.17 11.43 -80.01 -1057.23c-24.76,-11.43 -72.39,-26.67 -118.11,1.9 -78.1,47.63 -198.11,241.93 -118.1,1021.04l1.9 32.38 -358.12 100.96 -7.62 -43.81c-9.52,-64.77 -251.45,-1573.46 468.61,-2083.98l3.81 -1.9 118.1 -59.06c15.24,-3.81 626.72,-152.39 1087.71,-152.39 28.58,1.91 264.79,13.33 350.51,89.53 26.67,32.39 51.43,93.34 19.05,158.11 -62.87,127.63 -321.93,192.4 -769.59,194.3 -19.05,36.19 -57.15,116.2 -28.57,179.06 28.57,55.25 108.58,89.53 236.21,97.15l590.52 -74.29 38.1 342.89 -672.44 102.86c-3.81,5.72 -9.52,17.15 -7.62,36.2 3.81,47.62 59.06,180.96 480.04,413.36l472.42 365.75 -504.8 481.94zm-807.69 -788.63l0 0c236.21,0 672.44,502.9 815.31,674.34l377.17 -361.94 -396.22 -306.69c-333.36,-182.87 -508.61,-342.88 -516.23,-476.23 -3.81,-70.48 41.91,-104.77 45.72,-108.58l17.14 -5.71 611.48 -93.34 -20.96 -186.69 -520.04 62.87c-167.63,-9.53 -268.59,-57.15 -308.6,-140.97 -59.05,-123.82 41.91,-268.59 45.72,-274.31l11.43 -17.14 20.96 0c579.09,0 697.2,-104.77 720.06,-150.49 19.04,-36.19 -5.72,-70.48 -5.72,-72.39 -43.81,-36.19 -203.83,-57.14 -293.36,-60.95 -451.46,0 -1053.42,144.77 -1061.04,144.77l-106.67 55.24c-611.48,436.23 -472.42,1708.72 -438.13,1960.16l209.54 -57.14c-59.05,-607.67 -5.72,-965.8 160.01,-1064.85 106.68,-64.77 213.35,5.71 219.07,9.52l15.24 11.43 1.9 19.05 74.29 1003.89 213.35 -7.62 -32.38 -201.92c-24.76,-196.2 3.81,-308.6 87.63,-342.88 15.24,-7.62 34.28,-11.43 53.33,-11.43z"/>
  </g>
  <g id="_2568815709936">
   <path class="fil0" d="M47959 40981.11c-234.31,392.42 -175.26,845.79 255.25,718.16 0,0 765.78,-462.9 -165.72,-1613.47 0,0 -491.47,-520.04 -1266.77,-28.57 0,0 -1474.41,963.89 520.04,2407.82 0,0 2278.28,1965.87 893.41,2849.75 0,0 -1207.72,541 -1011.52,-678.15 0,0 215.26,-177.16 460.99,148.59 0,0 481.95,-777.21 -441.94,-914.37 0,0 -803.87,19.05 -794.35,824.83 0,0 68.58,1228.68 1304.87,1188.67 0,0 1611.56,-106.67 992.46,-2082.07 0,0 -127.63,-541 -1796.33,-2211.61 -893.41,-1061.04 1177.24,-2152.56 1049.61,-609.58z"/>
   <path class="fil1" d="M47658.02 45926.28c-1205.81,0 -1287.73,-1215.34 -1289.63,-1228.67 -9.53,-836.26 824.83,-866.74 834.35,-866.74 295.27,43.81 483.85,154.3 563.86,327.65 133.34,285.74 -78.1,632.43 -87.63,645.76l-30.48 49.53 -34.28 -45.72c-81.92,-106.67 -165.73,-167.63 -253.36,-179.06 -66.67,-7.62 -120.01,17.15 -140.96,30.48 -49.53,320.03 0,539.09 142.87,649.58 272.4,209.54 811.49,-26.67 817.21,-30.48 257.16,-163.82 400.03,-386.7 420.98,-655.29 64.77,-918.17 -1310.58,-2116.37 -1325.82,-2127.8 -712.44,-518.13 -1068.66,-1034.37 -1057.23,-1537.27 15.24,-582.9 520.04,-920.07 541,-933.41 796.25,-502.89 1312.49,28.58 1318.2,34.29 365.74,451.47 520.04,853.41 460.99,1194.39 -57.15,327.64 -293.36,472.42 -302.88,478.13l-9.53 3.81c-220.97,66.67 -327.64,-20.95 -373.36,-78.1 -112.39,-144.77 -83.82,-428.61 68.58,-687.68 28.57,-369.55 -72.39,-615.28 -283.84,-691.48 -241.92,-87.63 -582.9,60.96 -777.2,339.07 -97.15,140.97 -285.74,514.33 80,948.65 1655.38,1657.28 1798.25,2203.99 1803.96,2226.85 213.35,678.15 188.59,1215.34 -72.39,1596.32 -333.36,487.66 -929.6,533.38 -954.36,535.29 -20.95,0 -40,1.9 -59.05,1.9zm-460.99 -2017.31l0 0c-24.77,1.91 -758.16,30.48 -750.54,786.73 3.81,45.72 80.01,1184.86 1266.77,1150.57 3.81,0 581,-45.71 893.41,-502.89 245.73,-360.03 266.69,-874.36 60.96,-1529.65 -1.91,-7.62 -154.3,-561.95 -1786.82,-2196.37 -401.94,-476.23 -192.39,-889.6 -83.81,-1045.8 211.44,-304.79 592.43,-466.71 866.73,-367.65 144.78,53.33 380.99,222.87 335.27,781.01l-5.72 17.15c-139.05,230.49 -171.44,487.66 -78.1,607.67 70.48,89.53 192.4,80 283.84,53.33 28.57,-20.95 215.25,-154.29 260.97,-424.79 55.24,-318.12 -93.34,-697.2 -441.94,-1127.71 -17.15,-17.15 -478.14,-487.66 -1215.34,-20.96 -5.71,3.81 -493.37,329.55 -506.71,870.55 -9.52,476.23 335.27,971.51 1028.66,1472.5 60.96,53.34 1422.97,1240.1 1354.39,2196.37 -20.95,295.26 -177.15,537.19 -462.89,720.06 -28.57,13.34 -590.53,260.97 -901.03,20.96 -171.44,-129.54 -228.59,-379.08 -169.53,-739.11l1.9 -15.24 11.43 -9.53c3.81,-1.9 87.63,-70.48 209.54,-55.24 95.25,11.43 186.68,66.67 270.5,163.82 49.53,-100.96 144.77,-335.26 55.24,-523.85 -66.67,-148.58 -234.3,-241.92 -497.18,-281.93z"/>
  </g>
  <g id="_2568815709024">
   <path class="fil0" d="M41714.67 48450.3c361.94,-285.74 815.31,-285.74 746.73,167.63 0,0 -373.36,805.78 -1621.08,19.05 0,0 -569.57,-413.37 -177.16,-1247.72 0,0 765.78,-1573.46 2436.39,224.78 0,0 2238.28,2024.93 2945,541 0,0 392.42,-1266.78 -805.78,-923.89 0,0 -146.68,245.73 207.64,441.94 0,0 -708.63,571.48 -963.89,-323.83 0,0 -78.1,-796.26 727.68,-883.89 0,0 1226.77,-99.05 1335.35,1148.67 0,0 87.62,1613.46 -1944.93,1228.67 0,0 -548.61,-59.05 -2415.43,-1512.5 -1148.67,-756.26 -1983.02,1434.4 -470.52,1120.09z"/>
   <path class="fil1" d="M41800.4 49021.77c-281.93,0 -611.48,-118.1 -981.04,-352.41 -7.62,-5.71 -594.33,-441.94 -190.49,-1297.25 11.43,-22.85 280.02,-563.85 851.5,-647.67 493.37,-74.29 1047.7,217.16 1647.75,862.93 11.43,11.43 1375.35,1232.48 2282.1,1053.42 262.87,-51.43 464.8,-220.97 598.14,-502.9 0,0 171.44,-561.95 -70.48,-809.59 -129.54,-129.53 -354.32,-152.39 -670.53,-62.86 -11.43,24.76 -30.48,81.91 -11.43,150.49 22.86,83.81 93.34,160.01 209.54,222.87l49.53 28.58 -43.82 36.19c-13.33,11.43 -329.55,260.97 -630.53,167.63 -180.96,-57.14 -314.31,-230.49 -394.31,-510.52 -1.91,-15.23 -74.3,-841.97 760.06,-935.31 13.33,0 1268.67,-85.72 1379.16,1186.76 0,26.67 28.57,622.91 -415.27,1011.52 -346.7,304.78 -876.26,390.5 -1575.37,259.06 -20.95,-1.9 -581,-76.19 -2432.58,-1522.03 -464.8,-304.78 -809.59,-76.19 -937.22,38.1 -249.54,220.97 -360.03,588.62 -243.83,817.21 100.96,201.92 354.32,270.5 716.25,198.11 241.92,-188.58 512.42,-251.44 674.34,-156.2 76.2,43.81 161.92,144.77 127.63,365.75l-3.81 9.52c-3.81,11.43 -121.91,259.07 -440.04,352.41 -80,22.86 -165.72,36.19 -255.25,36.19zm-169.54 -2230.66l0 0c-47.63,0 -93.34,3.81 -139.06,11.43 -529.57,78.11 -790.54,598.15 -792.45,603.86 -375.27,796.26 158.11,1194.39 163.83,1198.2 464.8,293.35 859.11,396.22 1167.71,306.69 262.88,-76.2 375.27,-272.41 392.41,-306.69 13.34,-97.15 7.62,-220.97 -91.43,-280.03 -131.44,-76.19 -380.99,-9.52 -594.34,156.21l-15.24 7.62c-544.8,114.29 -742.91,-99.06 -811.49,-236.21 -133.35,-262.88 -17.15,-664.82 262.88,-912.46 140.96,-125.72 521.94,-379.08 1034.37,-41.91 1824.91,1422.98 2392.57,1506.79 2398.29,1506.79 676.25,127.63 1184.86,47.63 1510.6,-240.02 417.18,-363.84 390.51,-941.03 388.6,-946.74 -102.86,-1194.39 -1245.81,-1118.19 -1291.53,-1114.38 -758.16,83.82 -695.3,811.5 -691.49,841.98 70.49,247.63 186.69,401.93 342.89,449.56 196.21,62.86 415.27,-57.15 508.61,-118.11 -104.77,-68.58 -169.54,-150.49 -194.3,-241.92 -32.38,-123.82 22.86,-219.07 26.67,-222.88l7.62 -13.33 15.24 -5.72c354.31,-100.96 611.48,-74.29 763.87,81.91 274.31,280.03 97.15,866.74 89.53,891.51 -148.58,310.5 -367.65,495.27 -657.2,552.42 -942.93,188.59 -2295.42,-1022.94 -2352.57,-1074.37 -527.66,-567.67 -1009.61,-853.41 -1442.02,-853.41z"/>
  </g>
  <g id="_2568815705520">
   <path class="fil0" d="M45789.29 45591.02c0,0 -746.72,-1592.52 560.05,-2183.04 0,0 -500.99,-560.05 -1129.62,512.42 0,0 -283.83,480.04 -137.15,1179.15 0,0 -1826.82,-139.06 -1365.83,1120.09 0,0 89.53,274.31 245.74,432.42 127.63,-1101.05 1011.51,-942.94 1826.81,-1061.04z"/>
   <path class="fil1" d="M43992.96 46737.78l-57.15 -59.06c-161.92,-161.91 -251.45,-436.22 -255.26,-447.65 -116.2,-316.22 -100.96,-579.1 47.62,-775.3 310.5,-411.47 1095.33,-409.56 1304.87,-398.13 -123.82,-678.15 140.97,-1139.14 152.39,-1158.19 247.64,-420.99 506.71,-647.67 771.5,-674.34 257.16,-22.86 415.27,150.49 420.98,158.11l36.2 40 -49.53 20.95c-329.55,148.59 -552.43,377.18 -664.82,678.15 -241.92,653.39 121.92,1443.93 125.73,1451.55l20.95 47.62 -51.43 7.62c-144.78,20.96 -291.45,34.29 -432.42,45.72 -676.24,57.15 -1259.15,106.68 -1360.11,981.03l-9.52 81.92zm941.03 -1603.94l0 0c-281.93,0 -893.41,40 -1142.96,369.55 -131.43,173.35 -144.77,409.56 -36.19,702.91 0,3.81 66.67,203.83 180.97,354.32 137.15,-855.31 760.06,-908.65 1419.16,-963.89 123.82,-11.43 251.45,-20.95 377.18,-38.1 -78.11,-186.68 -325.74,-866.74 -106.68,-1462.97 114.3,-304.79 333.36,-539.1 653.39,-697.21 -57.15,-43.81 -167.63,-110.48 -316.22,-95.24 -234.3,24.76 -478.13,243.83 -708.63,636.24 -3.81,5.72 -276.21,478.14 -133.34,1150.57l11.43 51.44 -53.34 -3.81c-1.91,0 -57.15,-3.81 -144.77,-3.81z"/>
  </g>
  <g id="_2568815705664">
   <path class="fil0" d="M44208.21 44499.5c-196.2,28.57 -373.36,-108.58 -392.41,-304.79 -30.48,-196.21 108.58,-373.36 304.79,-392.41 196.2,-30.48 373.36,118.1 392.41,304.78 19.05,196.21 -118.11,373.37 -304.79,392.42z"/>
   <path class="fil1" d="M44154.87 44543.31c-85.72,0 -165.72,-28.57 -234.3,-80.01 -81.91,-64.76 -133.35,-160.01 -144.77,-264.78 -15.24,-104.77 11.42,-207.64 76.19,-291.45 64.77,-81.91 158.11,-133.35 264.79,-144.78 100.96,-15.24 203.82,11.43 285.73,76.2 83.82,64.77 139.06,161.92 148.59,264.78 22.86,217.17 -129.54,413.37 -337.17,434.33 -20.96,3.81 -40.01,5.71 -59.06,5.71zm15.24 -706.72l0 0c-15.24,0 -28.57,1.9 -43.81,3.81 -85.72,9.52 -160.01,49.52 -211.45,114.29 -51.43,66.67 -72.38,150.49 -60.95,234.31 9.52,85.72 49.52,160.01 116.2,211.44 64.76,51.43 148.58,72.39 232.4,60.96l1.9 -1.91c165.73,-17.14 287.64,-173.34 268.6,-348.6 -7.62,-81.91 -51.44,-158.1 -118.11,-209.54 -53.34,-41.9 -118.1,-64.76 -184.78,-64.76z"/>
  </g>
  <polygon class="fil1" points="11239.47,1610.27 39340.97,1610.27 39340.97,1835.05 11239.47,1835.05 "/>
  <polygon class="fil1" points="11239.47,3025.62 39340.97,3025.62 39340.97,3250.4 11239.47,3250.4 "/>
  <polygon class="fil1" points="11239.47,47025.42 39340.97,47025.42 39340.97,47252.1 11239.47,47252.1 "/>
  <polygon class="fil1" points="11239.47,48440.77 39340.97,48440.77 39340.97,48667.46 11239.47,48667.46 "/>
  <g id="_2568815706864">
   <path class="fil1" d="M2903.57 3800.92l-118.11 49.53c0,0 -617.19,127.63 -1080.08,118.1 0,0 -234.31,-28.57 -323.84,-99.05 0,0 -196.21,-293.36 765.78,-255.26 0,0 236.21,-314.31 -215.26,-363.84l-560.05 49.53 -9.52 -264.79 638.15 -68.57c0,0 215.25,-148.59 -441.94,-541l-422.89 -354.31 462.89 -411.47c0,0 971.51,1297.25 893.41,432.42l-30.48 -257.16 295.26 0 40 1041.99c0,0 441.94,325.74 352.41,-1030.56l285.74 -68.58c0,0 205.73,1552.51 -531.47,2023.02z"/>
   <path class="fil1" d="M1756.81 4008.56c-17.15,0 -34.29,0 -51.43,0 -28.58,-3.81 -253.36,-34.29 -346.7,-106.68l-9.52 -9.52c-17.15,-26.67 -38.1,-89.53 -3.81,-152.4 70.48,-125.72 333.36,-180.96 782.92,-165.72 19.05,-32.39 60.95,-112.39 32.38,-175.26 -24.76,-57.14 -104.77,-95.24 -232.4,-108.58l-594.33 53.34 -11.43 -344.79 661 -70.48c5.72,-7.62 13.34,-20.95 11.43,-43.81 -1.9,-47.63 -53.33,-184.78 -455.27,-424.8l-462.9 -386.7 527.67 -472.42 24.76 34.29c243.83,325.74 647.67,756.25 777.21,710.53 41.9,-15.23 59.05,-106.67 45.71,-249.54l-34.28 -299.07 377.17 0 40 1057.23c22.86,13.33 72.39,30.48 120.01,3.81 80.01,-43.82 205.73,-234.31 156.21,-1009.61l-3.81 -32.38 360.02 -87.63 5.72 43.81c9.52,64.77 201.92,1582.99 -548.62,2063.03l-5.71 1.91 -118.11 49.52c-11.43,3.81 -590.52,121.92 -1043.89,121.92zm-344.79 -165.73l0 0c70.48,49.53 238.11,80.01 299.07,87.63 445.75,7.62 1061.04,-116.2 1066.75,-118.11l108.58 -45.72c636.25,-411.46 539.1,-1687.75 514.33,-1941.11l-209.54 51.43c36.2,605.77 -30.48,958.18 -198.11,1051.52 -110.48,60.96 -215.26,-15.24 -220.97,-19.05l-15.24 -11.43 -38.1 -1022.94 -213.35 0 24.77 211.45c17.14,192.39 -13.34,300.97 -97.16,333.36 -217.16,85.72 -693.39,-510.52 -840.06,-702.92l-396.23 354.32 386.7 323.83c320.03,190.49 485.76,356.22 489.56,491.47 3.81,74.29 -43.81,108.58 -49.52,112.39l-19.05 5.72 -601.96 64.76 7.62 188.59 518.14 -45.72c167.63,17.15 266.69,70.48 304.79,156.21 53.34,123.82 -49.53,264.78 -53.34,270.49l-13.33 15.24 -19.05 0c-586.72,-22.86 -708.63,80.01 -733.4,123.82 -15.24,28.58 -5.71,55.25 -1.9,64.77z"/>
  </g>
  <g id="_2568815702784">
   <path class="fil1" d="M2147.32 9108.02c255.26,-382.88 217.16,-843.87 -224.78,-737.2 0,0 -775.31,432.42 108.58,1622.99 0,0 460.99,529.57 1255.34,78.1 0,0 1502.98,-904.83 -420.99,-2426.86 0,0 -2200.18,-2055.41 -786.73,-2880.24 0,0 1228.67,-500.99 992.46,718.15 0,0 -236.21,165.73 -460.99,-167.63 0,0 -510.52,756.25 401.94,933.41 0,0 805.78,9.53 824.83,-796.25 0,0 -9.53,-1228.68 -1257.25,-1238.2 0,0 -1609.65,40 -1061.04,2043.98 0,0 99.06,540.99 1708.72,2280.18 845.78,1091.52 -1266.78,2103.03 -1080.09,569.57z"/>
   <path class="fil1" d="M2669.26 10292.88c-424.79,0 -664.81,-270.5 -668.62,-274.31 -348.6,-468.61 -487.66,-876.26 -413.37,-1217.24 68.58,-323.83 304.79,-459.08 316.22,-464.8l9.52 -3.81c165.73,-40 299.07,-5.71 373.37,99.06 106.67,154.3 66.67,436.22 -100.96,691.48 -41.91,365.75 49.52,613.39 257.16,697.2 234.3,95.25 590.52,-43.81 792.44,-310.5 102.87,-135.25 306.7,-502.9 -38.09,-946.74 -1598.23,-1725.86 -1712.52,-2274.47 -1716.33,-2297.33 -188.59,-689.58 -144.78,-1228.68 129.53,-1598.23 350.5,-472.42 944.84,-491.47 969.6,-491.47 1272.49,9.53 1297.25,1262.96 1297.25,1276.3 -20.95,826.73 -838.16,836.26 -864.83,836.26 -293.36,-57.15 -476.23,-173.35 -548.62,-350.51 -121.91,-291.45 102.87,-630.53 112.39,-645.77l34.29 -47.62 32.39 47.62c72.38,108.58 154.29,173.35 240.02,188.59 72.38,13.33 129.53,-11.43 152.39,-22.86 59.05,-321.93 19.05,-542.9 -121.92,-659.1 -266.68,-219.07 -813.4,0 -819.11,1.9 -262.88,154.3 -413.37,369.56 -443.85,634.34 -102.86,914.36 1228.68,2167.8 1242.01,2179.23 687.68,546.71 1022.94,1078.18 990.56,1579.18 -38.1,581 -552.43,899.12 -575.29,912.45 -243.83,137.16 -457.18,186.68 -638.15,186.68zm-731.48 -1883.96l0 0c-30.48,19.05 -219.07,144.77 -274.31,411.46 -66.67,316.22 66.67,702.92 398.13,1150.57 17.14,17.15 449.56,495.28 1205.81,66.67 3.81,-1.9 502.9,-308.59 537.19,-849.59 30.47,-474.32 -295.27,-982.94 -963.89,-1512.5 -59.06,-55.25 -1375.35,-1295.35 -1268.68,-2249.71 32.39,-291.46 196.21,-525.76 487.66,-695.3 28.57,-11.43 600.05,-240.02 902.93,7.62 167.63,137.16 217.16,390.51 146.68,750.54l-1.9 17.14 -13.34 7.62c-3.81,3.81 -97.15,66.68 -224.78,43.82 -93.34,-15.24 -179.06,-74.3 -257.16,-171.45 -53.34,99.06 -156.21,329.55 -76.2,521.95 62.86,150.49 224.78,253.36 483.85,302.88 24.76,0 760.06,-1.9 777.21,-758.15 0,-47.63 -24.77,-1188.67 -1217.25,-1198.2 -3.81,0 -579.09,19.05 -906.74,460.99 -259.07,348.6 -299.07,864.84 -116.2,1533.46 1.91,7.62 125.73,563.86 1701.09,2263.04 379.08,491.47 154.3,895.32 40.01,1045.8 -226.69,297.17 -613.39,443.85 -885.79,335.27 -140.96,-57.15 -369.55,-236.21 -302.88,-788.64l5.71 -17.14c150.49,-226.69 196.21,-483.85 106.68,-611.48 -66.67,-95.24 -190.49,-89.53 -283.83,-66.67z"/>
  </g>
  <g id="_2568815702880">
   <path class="fil1" d="M8688.81 1884.57c-373.37,276.22 -836.26,245.74 -746.73,-196.2 0,0 401.94,-796.26 1630.61,40 0,0 548.61,441.94 127.63,1257.25 0,0 -836.26,1542.98 -2436.39,-323.84 0,0 -2150.66,-2112.55 -2916.43,-659.1 0,0 -441.94,1259.15 756.25,963.89 0,0 167.63,-236.21 -186.68,-453.37 0,0 737.2,-548.62 952.46,363.84 0,0 49.52,805.78 -756.26,855.3 0,0 -1226.76,40.01 -1295.34,-1198.19 0,0 -30.48,-1611.56 2002.07,-1160.09 0,0 541,78.1 2346.86,1611.56 1120.09,805.78 2043.98,-1356.3 521.95,-1101.05z"/>
   <path class="fil1" d="M5105.65 3772.35c-116.2,0 -1261.05,-32.39 -1327.72,-1236.29 0,-26.67 -5.72,-619.1 451.46,-992.47 358.13,-295.26 897.22,-363.84 1600.13,-207.63 19.05,1.9 569.57,97.15 2364.01,1619.18 451.46,325.74 805.78,110.48 937.22,1.9 260.97,-213.35 384.79,-577.19 278.11,-809.59 -91.43,-203.82 -342.88,-283.83 -704.82,-224.78 -243.82,177.16 -525.75,230.5 -685.77,127.63 -108.58,-68.57 -148.58,-200.01 -114.29,-369.55l1.9 -9.53c5.72,-11.43 131.44,-255.26 455.28,-337.17 337.17,-87.62 752.44,34.29 1232.48,361.94 9.53,5.71 573.38,474.32 140.97,1308.68 -13.34,22.86 -304.79,552.42 -881.98,613.38 -497.19,53.34 -1041.99,-259.07 -1619.18,-931.51 -9.53,-9.52 -1322.02,-1287.72 -2232.57,-1144.85 -264.78,41.91 -472.42,203.83 -619.09,480.04 1.9,0 -192.4,563.85 40,821.02 121.91,133.34 342.88,163.82 657.2,89.53 11.43,-22.86 34.28,-78.1 20.95,-148.58 -19.05,-85.73 -87.63,-165.73 -203.83,-236.21l-49.52 -30.48 47.62 -34.29c13.33,-9.53 340.98,-253.36 640.05,-144.78 180.97,64.77 306.69,243.83 373.37,531.48 1.9,13.33 43.81,851.5 -792.45,902.93 0,0 -3.81,0 -9.53,0zm53.34 -2438.3l0 0c-365.74,0 -659.1,89.53 -880.07,268.6 -428.61,350.5 -422.89,923.88 -422.89,929.6 66.67,1186.76 1207.72,1162 1257.24,1162 754.35,-47.63 720.06,-782.92 718.16,-813.4 -60.96,-253.36 -169.54,-413.37 -323.84,-468.61 -196.2,-70.49 -422.89,43.81 -518.14,100.96 104.78,76.19 167.64,161.92 186.69,255.26 26.67,125.72 -38.1,217.16 -40.01,220.97l-9.52 11.43 -13.34 3.81c-352.41,85.72 -603.85,49.52 -748.63,-108.58 -264.78,-293.36 -62.86,-881.98 -53.34,-906.75 160.02,-304.78 386.7,-480.03 678.15,-523.85 948.65,-146.68 2247.81,1114.38 2303.05,1167.72 558.14,653.38 1080.09,958.17 1550.6,906.74 535.29,-57.15 819.12,-567.67 821.02,-573.38 401.94,-775.3 -95.24,-1190.58 -116.2,-1207.72 -459.08,-312.41 -851.49,-430.51 -1167.71,-348.6 -266.69,68.58 -382.89,260.97 -401.94,291.45 -17.14,95.25 -17.14,219.07 81.91,281.93 133.35,83.82 386.7,30.48 603.86,-129.53l17.15 -7.62c548.61,-91.44 737.2,127.63 800.06,268.59 121.92,268.59 -9.52,664.82 -300.98,902.93 -144.77,120.01 -537.18,358.13 -1036.27,0 -1779.19,-1510.6 -2324,-1603.94 -2329.72,-1605.85 -238.11,-53.33 -457.18,-78.1 -655.29,-78.1z"/>
  </g>
  <g id="_2568815703216">
   <path class="fil1" d="M4494.18 4587.65c0,0 678.15,1611.56 -638.15,2152.56 0,0 472.42,579.1 1139.14,-472.42 0,0 304.79,-460.99 186.68,-1158.19 0,0 1817.29,196.21 1415.36,-1081.99 0,0 -80.01,-264.79 -226.69,-432.42 -177.16,1091.52 -1061.04,904.84 -1876.34,992.46z"/>
   <path class="fil1" d="M4204.63 6938.32c-234.31,0 -373.37,-165.73 -379.08,-173.35l-32.38 -41.9 49.52 -19.05c331.46,-137.16 561.95,-356.22 683.87,-651.48 264.78,-641.96 -64.77,-1442.03 -68.58,-1449.65l-19.05 -47.62 51.44 -5.72c144.77,-17.14 291.45,-22.85 432.41,-30.47 680.06,-32.39 1268.68,-60.96 1409.64,-929.6l13.34 -81.92 53.33 60.96c152.4,173.35 232.4,436.23 234.31,447.66 102.86,323.83 74.29,584.81 -83.82,779.11 -329.55,400.03 -1110.56,373.36 -1320.11,356.22 97.16,678.15 -188.58,1120.09 -200.01,1139.14 -264.79,413.37 -531.47,632.43 -794.35,647.67 -9.53,0 -19.05,0 -30.48,0zm-278.12 -184.77l0 0c53.34,45.71 161.92,110.48 304.79,106.67 232.4,-15.24 485.75,-226.68 731.49,-613.38 3.81,-3.81 295.26,-459.09 180.96,-1131.52l-9.52 -51.44 53.34 5.72c7.62,0 954.36,97.15 1301.06,-323.84 140.96,-171.44 163.82,-409.56 70.48,-706.72 -1.91,-1.91 -59.06,-196.21 -165.73,-350.51 -177.16,845.79 -803.88,876.26 -1466.79,908.65 -123.82,5.71 -251.45,13.33 -375.27,24.76 68.58,188.59 289.55,874.36 47.63,1461.07 -123.82,299.08 -350.51,523.86 -672.44,670.54z"/>
  </g>
  <g id="_2568815703120">
   <path class="fil1" d="M6037.16 5728.7c196.21,-11.43 361.93,137.15 382.89,323.84 9.52,196.2 -127.63,373.36 -323.84,382.88 -196.2,19.05 -363.84,-127.63 -382.89,-323.83 -11.43,-186.68 127.63,-363.84 323.84,-382.89z"/>
   <path class="fil1" d="M6058.11 6477.33c-198.11,0 -363.84,-152.39 -384.79,-361.93 -11.43,-215.26 150.49,-405.75 360.03,-426.7l1.9 0c213.36,-11.43 401.94,146.67 422.9,360.03 5.71,108.58 -26.67,211.44 -93.34,289.54 -66.68,83.82 -161.92,131.44 -266.69,137.16 -13.34,0 -26.67,1.9 -40.01,1.9zm-19.05 -710.53l0 0c-167.63,17.14 -297.16,171.44 -287.64,342.88 19.05,177.16 167.63,304.79 340.98,285.74 83.82,-3.81 158.11,-41.91 211.45,-106.67 53.34,-64.77 80,-148.59 76.19,-234.31 -17.14,-165.73 -171.44,-299.07 -340.98,-287.64z"/>
  </g>
  <g id="_2568815700480">
   <path class="fil1" d="M46888.43 2957.04l-47.62 -127.63c0,0 -89.53,-619.09 -49.53,-1081.99 0,0 38.1,-236.21 108.58,-314.31 0,0 314.31,-177.16 215.26,777.21 0,0 304.78,255.25 373.36,-186.69l-9.52 -571.47 264.78 0 28.57 649.58c0,0 127.63,224.78 569.57,-403.85l373.37 -401.94 382.89 481.95c0,0 -1354.4,893.41 -480.04,874.36l245.73 -9.53 -20.95 283.83 -1040.09 -28.57c0,0 -344.79,422.89 1021.04,422.89l49.53 283.84c0,0 -1562.04,108.58 -1984.93,-647.68z"/>
   <path class="fil1" d="M48658.1 3650.43c-451.47,0 -1464.88,-70.48 -1803.96,-674.34l-1.9 -5.71 -49.53 -127.63c-1.9,-15.24 -89.53,-638.15 -51.43,-1099.14 5.71,-28.57 43.81,-251.45 118.1,-337.17l9.53 -7.62c30.48,-17.14 97.15,-32.38 158.11,7.62 121.91,80.01 161.91,344.79 120.01,784.83 38.09,28.57 116.2,68.57 177.15,45.71 57.15,-20.95 95.25,-97.15 114.3,-220.97l-9.53 -601.95 342.89 0 30.48 672.44c5.71,5.71 17.14,15.24 40,15.24 0,0 0,0 1.91,0 47.62,0 186.68,-43.82 455.27,-426.71l407.65 -440.03 438.13 550.52 -34.28 24.76c-339.08,222.88 -798.17,600.05 -756.26,735.3 15.24,45.72 106.68,66.67 251.45,66.67l289.55 -11.43 -24.76 365.75 -1057.23 -28.58c-13.34,22.86 -32.39,70.49 -9.53,120.01 40.01,81.92 224.78,222.88 1009.61,222.88l32.38 0 62.86 360.03 -43.81 3.81c-13.33,0 -95.24,5.71 -217.16,5.71zm-1733.47 -710.53l0 0c367.64,655.29 1649.65,638.15 1901.1,628.62l-34.29 -209.54c-613.38,-1.9 -963.88,-93.34 -1047.7,-268.59 -55.24,-114.3 24.76,-213.35 28.57,-217.16l11.43 -15.24 19.05 0 1003.89 28.57 13.34 -203.82 -201.92 7.61c-196.21,9.53 -300.98,-34.28 -327.65,-120.01 -70.48,-226.68 550.52,-666.72 750.54,-801.97l-327.65 -413.36 -342.88 369.55c-209.54,300.98 -384.8,455.28 -516.23,455.28 -3.81,0 -5.72,0 -9.53,0 -72.39,-3.81 -102.87,-53.34 -106.67,-59.06l-3.81 -17.14 -28.58 -611.48 -186.68 0 7.62 529.57c-22.86,161.92 -80.01,257.16 -165.73,289.55 -127.63,47.62 -264.78,-66.68 -270.5,-72.39l-17.14 -13.34 1.9 -20.95c59.06,-571.47 -36.19,-702.91 -80,-731.49 -30.48,-20.95 -59.06,-13.33 -70.48,-7.62 -49.53,62.86 -85.73,228.59 -95.25,289.55 -38.1,447.66 49.53,1061.04 49.53,1068.66l45.72 116.2z"/>
  </g>
  <g id="_2568815702016">
   <path class="fil1" d="M41636.57 1865.53c371.46,285.73 824.83,264.78 744.83,-177.16 0,0 -382.89,-805.78 -1619.19,9.52 0,0 -560.04,432.42 -148.58,1259.15 0,0 805.78,1552.51 2436.39,-276.21 0,0 2188.75,-2072.55 2925.96,-609.57 0,0 422.89,1259.15 -775.31,944.84 0,0 -158.1,-236.21 186.69,-453.37 0,0 -718.16,-550.53 -952.46,354.31 0,0 -59.06,796.26 744.82,874.36 0,0 1228.67,59.05 1316.3,-1188.67 0,0 49.53,-1611.56 -1973.5,-1188.67 0,0 -550.52,68.58 -2386.86,1571.56 -1139.14,777.2 -2011.59,-1394.4 -499.09,-1120.09z"/>
   <path class="fil1" d="M45198.77 3831.4c-11.43,0 -19.05,0 -20.95,0 -834.36,-81.91 -782.93,-908.65 -782.93,-918.17 76.2,-291.45 205.73,-468.61 388.61,-529.57 295.26,-102.86 613.38,139.06 626.72,148.59l45.71 34.29 -47.62 30.47c-114.29,70.49 -180.97,150.49 -200.02,236.21 -15.24,68.58 5.72,123.82 17.15,148.59 316.21,80 539.09,53.33 662.91,-80.01 236.21,-251.45 51.43,-811.49 51.43,-817.21 -139.06,-272.4 -342.88,-436.23 -605.76,-481.94 -910.55,-160.02 -2244,1093.42 -2257.33,1106.75 -582.9,655.3 -1133.43,958.18 -1626.8,893.41 -575.28,-72.39 -859.12,-605.76 -870.55,-628.62 -422.89,-845.79 152.4,-1302.97 158.11,-1306.78 487.66,-321.93 902.93,-436.22 1234.39,-342.88 320.02,89.53 440.03,337.17 445.75,346.69l3.81 11.43c28.57,169.54 -13.34,299.08 -121.92,363.84 -158.1,97.15 -438.13,38.1 -680.05,-144.77 -360.03,-64.77 -611.48,13.33 -708.63,217.16 -110.49,232.4 7.62,598.14 260.97,815.3 129.54,110.49 480.04,333.36 942.94,19.05 1821.1,-1491.55 2379.24,-1575.36 2402.1,-1579.17 695.29,-144.78 1226.77,-68.58 1579.18,228.59 453.37,379.08 440.03,975.31 440.03,1001.98 -83.81,1181.05 -1169.62,1226.77 -1337.25,1226.77zm-262.88 -1394.4l0 0c-41.91,0 -85.72,5.72 -127.63,20.95 -156.2,53.34 -268.59,211.45 -335.26,468.61 -1.91,24.77 -45.72,752.45 712.43,826.74 45.72,5.71 1186.77,41.91 1272.49,-1152.48 0,-5.71 11.43,-584.81 -413.37,-939.12 -333.36,-280.02 -843.88,-350.51 -1514.41,-209.54 -7.62,1.9 -573.38,93.34 -2369.72,1563.94 -508.61,348.6 -897.21,100.96 -1040.08,-20.96 -283.83,-243.83 -407.65,-643.86 -280.02,-910.55 64.76,-139.06 257.16,-358.12 801.97,-257.16l17.14 7.62c215.26,163.82 466.71,224.78 598.15,144.77 99.05,-59.05 102.86,-182.87 85.72,-278.12 -15.24,-32.38 -131.44,-228.59 -394.32,-300.97 -310.5,-85.73 -702.92,24.76 -1165.81,329.55 -19.05,15.24 -525.76,422.89 -133.35,1207.71 1.91,5.72 276.22,520.05 809.59,586.72 468.61,59.05 994.37,-234.31 1560.13,-870.55 59.06,-55.24 1382.97,-1295.34 2327.81,-1129.62 289.55,51.44 512.43,228.6 664.82,529.57 9.52,30.48 201.92,615.29 -66.67,901.03 -146.68,158.11 -400.04,190.49 -754.35,97.15l-15.24 -3.81 -7.62 -11.43c-3.81,-3.81 -62.86,-95.25 -36.19,-219.07 19.05,-93.34 81.91,-179.06 184.77,-255.25 -74.29,-45.72 -224.78,-125.73 -380.98,-125.73z"/>
  </g>
  <g id="_2568815699520">
   <path class="fil1" d="M48440.94 8843.24c-245.73,-382.89 -196.21,-845.78 236.21,-727.68 0,0 775.3,453.37 -139.06,1622.99 0,0 -470.51,520.04 -1266.77,47.62 0,0 -1482.03,-923.88 472.42,-2407.81 0,0 2247.8,-2023.02 843.88,-2878.33 0,0 -1226.77,-512.43 -1001.99,706.72 0,0 226.69,177.16 462.9,-156.2 0,0 489.56,765.78 -422.9,923.88 0,0 -805.78,0 -815.3,-805.78 0,0 40,-1240.1 1285.82,-1219.14 0,0 1611.56,68.57 1022.94,2063.02 0,0 -108.58,541 -1748.71,2251.62 -874.36,1070.56 1226.76,2122.07 1070.56,579.09z"/>
   <path class="fil1" d="M47913.28 10022.38c-186.68,0 -407.65,-51.43 -661.01,-201.92 -22.86,-13.33 -529.57,-337.17 -558.14,-914.36 -22.86,-500.99 321.93,-1024.84 1024.85,-1558.22 11.43,-9.53 1373.44,-1247.72 1287.72,-2167.8 -24.76,-266.69 -173.35,-485.75 -440.04,-647.67 0,0 -546.71,-222.87 -817.21,-3.81 -140.96,114.3 -184.77,335.27 -127.62,655.29 22.85,13.34 78.1,40.01 148.58,28.58 85.72,-13.34 167.63,-76.2 245.73,-184.78l32.39 -47.62 32.38 47.62c9.52,15.24 224.78,358.12 99.06,647.67 -78.11,175.25 -260.98,287.64 -548.62,337.17 0,0 0,0 0,0 -41.91,0 -849.59,-22.86 -859.12,-843.88 0,-15.24 53.34,-1259.15 1295.35,-1259.15 9.52,0 20.95,0 30.47,0 26.67,1.91 619.1,32.39 960.08,510.52 268.6,375.27 300.98,914.36 97.15,1603.94 -3.81,19.05 -127.63,567.67 -1756.33,2266.85 -352.41,432.42 -160.01,800.07 -60.96,937.22 196.21,270.5 550.52,417.18 790.54,325.74 213.35,-80 310.5,-327.64 274.31,-697.2 -161.92,-255.25 -196.21,-539.09 -83.81,-691.48 41.9,-59.05 148.58,-146.68 367.64,-87.63l9.53 5.72c9.52,5.71 249.54,146.68 312.41,476.23 64.76,340.98 -81.92,746.73 -438.14,1202 -5.71,5.72 -243.83,260.97 -657.19,260.97zm163.82 -5669.03l0 0c257.16,0 510.52,102.86 525.76,110.48 293.36,177.16 453.37,415.28 481.94,708.63 89.53,960.08 -1257.24,2184.94 -1314.39,2236.38 -683.87,518.13 -1017.23,1021.03 -996.27,1493.45 24.76,535.28 514.32,847.69 518.13,851.5 758.16,447.66 1200.1,-22.86 1217.25,-41.91 339.07,-436.22 481.94,-819.11 420.98,-1137.23 -51.43,-270.5 -240.02,-401.94 -270.49,-422.89 -91.44,-22.86 -211.45,-30.48 -278.12,60.95 -91.44,125.73 -53.34,380.99 91.43,609.58l5.72 17.14c57.15,558.14 -177.16,733.39 -321.93,788.64 -276.22,104.77 -662.91,-51.44 -881.98,-354.32 -110.49,-152.39 -323.84,-558.14 64.77,-1034.37 1603.94,-1674.42 1739.19,-2228.75 1739.19,-2234.47 198.11,-666.72 169.54,-1184.86 -83.82,-1539.17 -320.03,-445.75 -893.41,-476.23 -899.12,-478.14 -9.52,0 -20.95,0 -28.57,0 -1165.81,0 -1215.34,1133.43 -1217.25,1181.05 9.53,756.26 744.83,765.78 775.3,765.78 251.45,-43.81 415.28,-142.87 481.95,-291.45 83.82,-190.49 -13.34,-420.99 -64.77,-521.95 -80,99.06 -169.54,154.3 -262.88,169.54 -125.72,19.05 -213.35,-49.53 -217.16,-51.43l-11.43 -9.53 -3.81 -15.24c-66.67,-360.03 -15.24,-611.48 154.3,-748.63 104.77,-83.82 240.02,-112.39 375.27,-112.39z"/>
  </g>
  <g id="_2568815701056">
   <path class="fil1" d="M46004.55 4490.5c0,0 -1649.66,588.62 -2110.65,-767.68 0,0 -607.67,441.94 392.41,1169.62 0,0 451.47,333.36 1160.1,255.26 0,0 -314.31,1807.77 981.03,1474.41 0,0 274.31,-59.06 441.94,-196.21 -1070.56,-245.74 -824.83,-1110.57 -864.83,-1935.4z"/>
   <path class="fil1" d="M46132.18 6702.11c-186.68,0 -340.98,-55.24 -460.99,-167.63 -380.98,-348.6 -300.98,-1133.43 -272.4,-1342.97 -685.77,57.15 -1116.29,-253.35 -1135.34,-266.69 -392.41,-285.73 -592.43,-563.85 -592.43,-828.64 0,-257.16 192.4,-400.03 200.02,-405.74l43.81 -30.48 17.15 51.43c116.2,342.89 321.93,586.72 611.48,727.68 624.81,300.98 1440.12,15.24 1449.64,13.33l49.53 -17.14 1.9 51.43c7.62,150.49 5.72,300.98 3.81,445.75 -9.52,676.25 -19.05,1261.06 830.55,1455.36l78.1 17.15 -62.86 51.43c-171.45,140.96 -445.75,201.92 -459.09,203.82 -108.58,28.58 -209.54,41.91 -302.88,41.91zm-638.15 -1598.22l0 0 -9.52 51.43c-1.91,9.52 -160.02,954.36 240.02,1322.01 160.01,148.59 394.31,184.78 693.39,106.68 3.81,0 203.82,-43.82 360.03,-140.97 -826.74,-228.59 -817.21,-851.49 -809.59,-1512.5 1.9,-127.63 3.81,-257.17 0,-386.7 -192.4,59.05 -887.7,241.92 -1459.17,-34.29 -293.36,-140.96 -504.8,-382.89 -632.43,-718.15 -49.53,53.34 -127.63,158.11 -125.73,306.69 0,232.4 194.3,497.18 560.05,761.97 3.81,3.81 449.56,325.74 1129.61,249.54l53.34 -5.71z"/>
  </g>
  <g id="_2568815701488">
   <path class="fil1" d="M44768.26 5963c0,198.12 -158.11,354.32 -354.32,363.84 -186.68,0 -352.41,-156.2 -352.41,-342.88 -9.52,-196.21 146.68,-363.84 342.89,-363.84 196.2,-9.53 354.31,146.68 363.84,342.88z"/>
   <path class="fil1" d="M44415.85 6366.85c-209.54,0 -394.32,-179.07 -394.32,-382.89 -5.71,-102.87 34.29,-207.64 106.68,-283.83 72.38,-78.11 171.44,-120.01 276.21,-120.01 102.86,-7.62 203.82,32.38 280.02,106.67 74.29,70.48 118.11,169.54 123.82,274.31l0 1.9c0,215.26 -173.35,392.42 -392.41,403.85zm5.71 -708.63l0 0c-89.53,0 -175.25,30.48 -236.21,95.24 -59.05,62.87 -89.53,142.87 -85.72,228.59 0,163.83 146.68,306.7 314.31,306.7 175.26,-9.53 314.31,-152.4 314.31,-323.84 -9.52,-175.25 -140.96,-306.69 -306.69,-306.69z"/>
  </g>
  <polygon class="fil1" points="1598.7,39615.29 1598.7,10662.44 1823.48,10662.44 1823.48,39615.29 "/>
  <polygon class="fil1" points="3012.15,39615.29 3012.15,10662.44 3238.83,10662.44 3238.83,39615.29 "/>
  <polygon class="fil1" points="46692.23,39615.29 46692.23,10662.44 46918.91,10662.44 46918.91,39615.29 "/>
  <polygon class="fil1" points="48107.58,39615.29 48107.58,10662.44 48332.36,10662.44 48332.36,39615.29 "/>
 </g>
</svg>
