<?xml version="1.0" encoding="UTF-8"?>
<!DOCTYPE svg PUBLIC "-//W3C//DTD SVG 1.1//EN" "http://www.w3.org/Graphics/SVG/1.1/DTD/svg11.dtd">
<!-- Creator: CorelDRAW 2021 (64-Bit) -->
<svg xmlns="http://www.w3.org/2000/svg" xml:space="preserve" width="500mm" height="500mm" version="1.1" style="shape-rendering:geometricPrecision; text-rendering:geometricPrecision; image-rendering:optimizeQuality; fill-rule:evenodd; clip-rule:evenodd"
viewBox="0 0 50000 50000"
 xmlns:xlink="http://www.w3.org/1999/xlink"
 xmlns:xodm="http://www.corel.com/coreldraw/odm/2003">
 <defs>
  <style type="text/css">
   <![CDATA[
    .fil0 {fill:black;fill-rule:nonzero}
   ]]>
  </style>
 </defs>
 <g id="图层_x0020_1">
  <metadata id="CorelCorpID_0Corel-Layer"/>
  <g id="_2604732098656">
   <polygon class="fil0" points="42223.65,49110.48 7659.42,49110.48 7659.42,48618.48 42223.65,48618.48 "/>
   <path class="fil0" d="M49184.71 49214.06l-1487.97 0 0 -205.16 1487.97 0 0 205.16zm-1487.97 0l0 0 -113.54 0 0 -103.58 113.54 0 0 103.58zm-113.54 -103.58l0 0 0 -1262.88 225.09 0 0 1262.88 -225.09 0zm113.54 -1366.46l0 0 111.55 0 0 103.58 -111.55 0 0 -103.58zm0 207.16l0 0 -503.96 0 0 -207.16 503.96 0 0 207.16zm-617.5 -103.58l0 0 0 -103.58 113.54 0 0 103.58 -113.54 0zm217.12 0l0 0 0 1262.88 -217.12 0 0 -1262.88 217.12 0zm0 1262.88l0 0 0 103.58 -103.58 0 0 -103.58 103.58 0zm-103.58 103.58l0 0 -1653.31 0 0 -205.16 1653.31 0 0 205.16zm-1653.31 0l0 0 -101.59 0 0 -103.58 101.59 0 0 103.58zm-101.59 -103.58l0 0 0 -1623.42 215.13 0 0 1623.42 -215.13 0zm0 -1623.42l0 0 0 -101.59 101.59 0 0 101.59 -101.59 0zm101.59 -101.59l0 0 1262.89 0 0 205.17 -1262.89 0 0 -205.17zm1376.43 101.59l0 0 0 103.58 -113.54 0 0 -103.58 113.54 0zm-215.13 0l0 0 0 -368.51 215.13 0 0 368.51 -215.13 0zm101.59 -472.09l0 0 113.54 0 0 103.58 -113.54 0 0 -103.58zm0 195.21l0 0 -1262.89 0 0 -195.21 1262.89 0 0 195.21zm-1262.89 0l0 0 -328.67 0 0 -195.21 328.67 0 0 195.21zm-328.67 0l0 0 -91.63 0 0 -195.21 91.63 0 0 195.21zm-195.21 -91.63l0 0 0 -103.58 103.58 0 0 103.58 -103.58 0zm217.12 0l0 0 0 1991.93 -217.12 0 0 -1991.93 217.12 0zm0 1991.93l0 0 0 103.58 -113.54 0 0 -103.58 113.54 0zm-113.54 103.58l0 0 -2814.61 0 0 -205.16 2814.61 0 0 205.16zm-2814.61 0l0 0 -111.54 0 0 -103.58 111.54 0 0 103.58zm-111.54 -103.58l0 0 0 -1087.59 225.09 0 0 1087.59 -225.09 0zm0 -1087.59l0 0 0 -93.62 111.54 0 0 93.62 -111.54 0zm111.54 -93.62l0 0 1623.43 -9.96 0 195.21 -1623.43 9.96 0 -195.21zm1623.43 -9.96l0 0 101.59 0 0 91.62 -101.59 0 0 -91.62zm101.59 91.62l0 0 21.91 637.42 -215.13 9.96 -21.91 -635.42 215.13 -11.96zm-81.67 741.01l0 0 -111.55 9.96 0 -103.59 111.55 0 0 93.63zm-9.96 -195.21l0 0 709.13 -19.92 9.96 205.17 -709.13 9.96 -9.96 -195.21zm820.68 81.66l0 0 0 93.63 -101.59 9.96 -9.96 -103.59 111.55 0zm-215.13 0l0 0 9.96 -1983.96 217.12 0 -11.95 1983.96 -215.13 0zm9.96 -1983.96l0 0 0 -101.59 113.54 0 0 101.59 -113.54 0zm113.54 -101.59l0 0 2085.56 0 0 195.21 -2085.56 9.96 0 -205.17zm2187.15 91.63l0 0 0 103.58 -101.59 0 0 -103.58 101.59 0zm-215.13 9.96l0 0 -9.96 -1858.48 215.13 0 9.96 1848.52 -215.13 9.96zm-9.96 -1858.48l0 0 0 -103.58 111.55 0 0 103.58 -111.55 0zm111.55 -103.58l0 0 1890.35 29.88 0 197.2 -1890.35 -21.91 0 -205.17zm2003.89 133.46l0 0 0 93.62 -113.54 0 0 -93.62 113.54 0zm-217.13 -9.96l0 0 9.96 -709.13 217.13 0 -9.96 719.09 -217.13 -9.96zm113.55 -812.71l0 0 113.54 0 0 103.58 -113.54 0 0 -103.58zm0 195.21l0 0 -687.22 0 0 -195.21 687.22 0 0 195.21zm-687.22 0l0 0 -113.54 0 0 -101.59 113.54 0 0 101.59zm-113.54 -101.59l0 0 0 -1450.13 225.09 0 -9.96 1450.13 -215.13 0zm0 -1450.13l0 0 0 -101.59 113.54 0 0 101.59 -113.54 0zm113.54 -101.59l0 0 1231.01 0 0 205.17 -1231.01 0 0 -205.17zm1231.01 0l0 0 103.58 0 0 101.59 -103.58 0 0 -101.59zm103.58 101.59l0 0 0 308.75 -215.12 0 0 -308.75 215.12 0zm0 308.75l0 0 0 93.62 -103.58 0 0 -93.62 103.58 0zm-103.58 93.62l0 0 -790.79 0 0 -197.2 790.79 0 0 197.2zm-902.34 -93.62l0 0 0 -103.58 111.55 0 0 103.58 -111.55 0zm215.13 0l0 0 0 741 -215.13 0 0 -741 215.13 0zm-103.58 842.59l0 0 -111.55 0 0 -101.59 111.55 0 0 101.59zm0 -195.21l0 0 790.79 0 0 195.21 -790.79 0 0 -195.21zm790.79 0l0 0 103.58 0 0 93.62 -103.58 0 0 -93.62zm103.58 93.62l0 0 0 1489.97 -215.12 0 0 -1489.97 215.12 0zm0 1489.97l0 0 0 101.59 -103.58 0 0 -101.59 103.58 0zm-103.58 101.59l0 0 -1991.93 0 0 -195.21 1991.93 0 0 195.21zm-2105.47 -101.59l0 0 0 -93.62 113.54 0 0 93.62 -113.54 0zm217.12 0l0 0 0 400.38 -217.12 0 0 -400.38 217.12 0zm0 400.38l0 0 0 1151.34 -217.12 0 0 -1151.34 217.12 0zm-103.58 1252.93l0 0 -113.54 0 0 -101.59 113.54 0 0 101.59zm0 -195.21l0 0 503.96 0 0 195.21 -503.96 0 0 -195.21zm615.51 93.62l0 0 0 101.59 -111.55 0 0 -101.59 111.55 0zm-225.09 0l0 0 0 -1151.34 225.09 0 0 1151.34 -225.09 0zm0 -1151.34l0 0 0 -93.62 113.54 0 0 93.62 -113.54 0zm113.54 -93.62l0 0 1487.97 0 0 195.21 -1487.97 0 0 -195.21zm1487.97 0l0 0 103.58 0 0 93.62 -103.58 0 0 -93.62zm103.58 93.62l0 0 0 1531.8 -215.12 0 0 -1531.8 215.12 0zm0 1531.8l0 0 0 91.63 -103.58 0 0 -91.63 103.58 0zm-103.58 91.63l0 0 -1139.38 0 0 -195.21 1139.38 0 0 195.21zm-1240.97 -91.63l0 0 0 -103.58 101.59 0 0 103.58 -101.59 0zm215.13 0l0 0 0 368.51 -215.13 0 0 -368.51 215.13 0zm-113.54 472.09l0 0 -101.59 0 0 -103.58 101.59 0 0 103.58zm0 -205.17l0 0 1139.38 0 0 205.17 -1139.38 0 0 -205.17zm1139.38 0l0 0 103.58 0 0 101.59 -103.58 0 0 -101.59zm103.58 101.59l0 0 0 1623.42 -215.12 0 0 -1623.42 215.12 0zm0 1623.42l0 0 0 103.58 -103.58 0 0 -103.58 103.58 0zm-1653.3 -1529.8l0 0 -442.21 0 0 -195.21 442.21 0 0 195.21zm-442.21 0l0 0 -113.54 0 0 -93.62 113.54 0 0 93.62zm-113.54 -93.62l0 0 0 -368.51 217.12 0 0 368.51 -217.12 0zm0 -368.51l0 0 0 -103.58 113.54 0 0 103.58 -113.54 0zm113.54 -103.58l0 0 442.21 0 0 205.17 -442.21 0 0 -205.17zm442.21 0l0 0 113.54 0 0 103.58 -113.54 0 0 -103.58zm113.54 103.58l0 0 0 368.51 -217.12 0 0 -368.51 217.12 0zm0 368.51l0 0 0 93.62 -113.54 0 0 -93.62 113.54 0zm-4210.96 1294.75l0 0 -790.8 0 0 -205.17 790.8 0 0 205.17zm-790.8 0l0 0 -101.58 0 0 -101.58 101.58 0 0 101.58zm-101.58 -101.58l0 0 0 -256.96 215.13 0 0 256.96 -215.13 0zm0 -256.96l0 0 0 -103.58 101.58 0 0 103.58 -101.58 0zm101.58 -103.58l0 0 790.8 0 0 205.16 -790.8 0 0 -205.16zm790.8 0l0 0 113.54 0 0 103.58 -113.54 0 0 -103.58zm113.54 103.58l0 0 0 256.96 -217.12 0 0 -256.96 217.12 0zm0 256.96l0 0 0 101.58 -113.54 0 0 -101.58 113.54 0zm5194.97 -1860.47l0 0 -800.75 0 0 -195.21 800.75 0 0 195.21zm-800.75 0l0 0 -101.59 0 0 -103.58 101.59 0 0 103.58zm-101.59 -103.58l0 0 0 -647.38 215.13 0 0 647.38 -215.13 0zm0 -647.38l0 0 0 -101.59 101.59 0 0 101.59 -101.59 0zm101.59 -101.59l0 0 800.75 0 0 205.17 -800.75 0 0 -205.17zm800.75 0l0 0 103.59 0 0 101.59 -103.59 0 0 -101.59zm103.59 101.59l0 0 0 647.38 -217.13 0 0 -647.38 217.13 0zm0 647.38l0 0 0 103.58 -103.59 0 0 -103.58 103.59 0zm-2177.19 1964.05l0 0 -800.76 0 0 -195.21 800.76 0 0 195.21zm-800.76 0l0 0 -103.58 0 0 -103.59 103.58 0 0 103.59zm-103.58 -103.59l0 0 0 -647.37 215.13 0 0 647.37 -215.13 0zm0 -647.37l0 0 0 -101.59 103.58 0 0 101.59 -103.58 0zm103.58 -101.59l0 0 800.76 0 0 205.17 -800.76 0 0 -205.17zm800.76 0l0 0 101.59 0 0 101.59 -101.59 0 0 -101.59zm101.59 101.59l0 0 0 647.37 -215.13 0 0 -647.37 215.13 0zm0 647.37l0 0 0 103.59 -101.59 0 0 -103.59 101.59 0zm1972.01 103.59l0 0 -800.75 0 0 -195.21 800.75 0 0 195.21zm-800.75 0l0 0 -101.59 0 0 -103.59 101.59 0 0 103.59zm-101.59 -103.59l0 0 0 -647.37 215.13 0 0 647.37 -215.13 0zm0 -647.37l0 0 0 -101.59 101.59 0 0 101.59 -101.59 0zm101.59 -101.59l0 0 800.75 0 0 205.17 -800.75 0 0 -205.17zm800.75 0l0 0 103.59 0 0 101.59 -103.59 0 0 -101.59zm103.59 101.59l0 0 0 647.37 -217.13 0 0 -647.37 217.13 0zm0 647.37l0 0 0 103.59 -103.59 0 0 -103.59 103.59 0z"/>
   <path class="fil0" d="M811.14 49214.06l1487.97 0 0 -205.16 -1487.97 0 0 205.16zm1386.38 -103.58l0 0 0 -101.58 101.59 0 0 101.58 -101.59 0zm215.13 0l0 0 0 -1262.88 -215.13 0 0 1262.88 215.13 0zm0 -1262.88l0 0 0 103.58 -113.54 0 0 -103.58 113.54 0zm-113.54 103.58l0 0 513.92 0 0 -207.16 -513.92 0 0 207.16zm513.92 0l0 0 -113.54 0 0 -103.58 113.54 0 0 103.58zm-113.54 -103.58l0 0 0 1262.88 215.13 0 0 -1262.88 -215.13 0zm113.54 1161.3l0 0 101.59 0 0 101.58 -101.59 0 0 -101.58zm0 205.16l0 0 1643.35 0 0 -205.16 -1643.35 0 0 205.16zm1529.81 -103.58l0 0 0 -101.58 113.54 0 0 101.58 -113.54 0zm225.09 0l0 0 0 -1623.42 -225.09 0 0 1623.42 225.09 0zm-111.55 -1519.84l0 0 -113.54 0 0 -103.58 113.54 0 0 103.58zm0 -205.17l0 0 -1262.89 0 0 205.17 1262.89 0 0 -205.17zm-1262.89 0l0 0 111.55 0 0 101.59 -111.55 0 0 -101.59zm111.55 101.59l0 0 0 -368.51 -225.09 0 0 368.51 225.09 0zm0 -368.51l0 0 0 91.63 -111.55 0 0 -91.63 111.55 0zm-111.55 91.63l0 0 1262.89 0 0 -195.21 -1262.89 0 0 195.21zm1262.89 0l0 0 338.63 0 0 -195.21 -338.63 0 0 195.21zm338.63 0l0 0 81.67 0 0 -195.21 -81.67 0 0 195.21zm81.67 0l0 0 -113.54 0 0 -91.63 113.54 0 0 91.63zm-113.54 -91.63l0 0 0 1991.93 217.12 0 0 -1991.93 -217.12 0zm113.54 1890.35l0 0 103.58 0 0 101.58 -103.58 0 0 -101.58zm0 205.16l0 0 2814.61 0 0 -205.16 -2814.61 0 0 205.16zm2711.02 -103.58l0 0 0 -101.58 103.59 0 0 101.58 -103.59 0zm215.13 0l0 0 0 -1087.59 -215.13 0 0 1087.59 215.13 0zm-111.54 -986l0 0 -103.59 0 0 -101.59 103.59 0 0 101.59zm0 -195.21l0 0 -1613.47 -9.96 0 195.21 1613.47 9.96 0 -195.21zm-1509.89 93.62l0 0 0 91.63 -103.58 0 0 -103.59 103.58 11.96zm-217.12 -11.96l0 0 -19.92 637.42 215.13 9.96 21.91 -635.42 -217.12 -11.96zm-19.92 637.42l0 0 0 -91.62 113.54 0 0 101.58 -113.54 -9.96zm113.54 -91.62l0 0 -709.13 -19.92 0 205.17 699.17 9.96 9.96 -195.21zm-709.13 -19.92l0 0 103.58 0 0 101.58 -103.58 0 0 -101.58zm103.58 101.58l0 0 -9.96 -1983.96 -217.12 0 9.96 1983.96 217.12 0zm-113.54 -1880.38l0 0 -113.54 0 0 -103.58 113.54 0 0 103.58zm0 -205.17l0 0 -2095.52 0 0 195.21 2095.52 9.96 0 -205.17zm-2095.52 0l0 0 113.54 0 0 101.59 -113.54 -9.96 0 -91.63zm113.54 101.59l0 0 9.96 -1858.48 -215.13 0 -9.96 1848.52 215.13 9.96zm-91.63 -1756.89l0 0 -113.54 0 0 -101.59 113.54 0 0 101.59zm-9.96 -205.17l0 0 -1890.35 29.88 0 197.2 1900.31 -21.91 -9.96 -205.17zm-1890.35 29.88l0 0 103.59 0 0 93.62 -103.59 9.96 0 -103.58zm103.59 93.62l0 0 -11.96 -709.13 -215.13 0 9.96 719.09 217.13 -9.96zm-11.96 -709.13l0 0 11.96 91.63 -113.55 0 0 -91.63 101.59 0zm-101.59 91.63l0 0 697.18 0 0 -195.21 -697.18 0 0 195.21zm585.63 -101.59l0 0 0 -93.62 111.55 0 0 93.62 -111.55 0zm215.13 0l0 0 0 -1450.13 -215.13 0 0 1450.13 215.13 0zm-113.54 -1346.55l0 0 -101.59 0 0 -103.58 101.59 0 0 103.58zm0 -205.17l0 0 -1231.01 0 0 205.17 1231.01 0 0 -205.17zm-1119.47 101.59l0 0 0 103.58 -111.54 0 0 -103.58 111.54 0zm-215.12 0l0 0 0 308.75 215.12 0 0 -308.75 -215.12 0zm103.58 205.17l0 0 111.54 0 0 103.58 -111.54 0 0 -103.58zm0 197.2l0 0 800.75 0 0 -197.2 -800.75 0 0 197.2zm800.75 0l0 0 -113.54 0 0 -93.62 113.54 0 0 93.62zm-113.54 -93.62l0 0 0 741 215.13 0 0 -741 -215.13 0zm0 741l0 0 0 -93.62 113.54 0 0 93.62 -113.54 0zm113.54 -93.62l0 0 -800.75 0 0 195.21 800.75 0 0 -195.21zm-689.21 93.62l0 0 0 101.59 -111.54 0 0 -101.59 111.54 0zm-215.12 0l0 0 0 1499.93 215.12 0 0 -1499.93 -215.12 0zm103.58 1396.35l0 0 111.54 0 0 103.58 -111.54 0 0 -103.58zm0 205.17l0 0c205.17,0 635.42,-9.96 1035.8,-9.96l0 -195.21c-266.92,0 -511.92,0 -1035.8,0l0 205.17zm1035.8 -9.96l0 0c256.96,0 523.88,0 966.09,0l0 -195.21c-205.17,0 -575.67,0 -966.09,0l0 195.21zm966.09 0l0 0 -113.54 0 0 -101.59 113.54 0 0 101.59zm-113.54 -101.59l0 0 0 49.8 215.13 0 0 -49.8 -215.13 0zm0 49.8l0 0 0 350.58 215.13 0 0 -350.58 -215.13 0zm0 350.58l0 0 0 1151.34 215.13 0 0 -1151.34 -215.13 0zm0 1151.34l0 0 0 -93.62 113.54 0 0 93.62 -113.54 0zm113.54 -93.62l0 0 -513.92 0 0 195.21 513.92 0 0 -195.21zm-513.92 0l0 0 113.54 0 0 93.62 -113.54 0 0 -93.62zm113.54 93.62l0 0 0 -1151.34 -215.13 0 0 1151.34 215.13 0zm-113.54 -1049.75l0 0 -101.59 0 0 -101.59 101.59 0 0 101.59zm0 -195.21l0 0 -1487.97 0 0 195.21 1487.97 0 0 -195.21zm-1376.43 93.62l0 0 0 101.59 -111.54 0 0 -101.59 111.54 0zm-215.12 0l0 0 0 1531.8 215.12 0 0 -1531.8 -215.12 0zm103.58 1428.22l0 0 111.54 0 0 103.58 -111.54 0 0 -103.58zm0 195.21l0 0 1139.38 0 0 -195.21 -1139.38 0 0 195.21zm1139.38 0l0 0 -113.54 0 0 -91.63 113.54 0 0 91.63zm-113.54 -91.63l0 0 0 368.51 215.13 0 0 -368.51 -215.13 0zm0 368.51l0 0 0 -101.59 113.54 0 0 101.59 -113.54 0zm113.54 -101.59l0 0 -1139.38 0 0 205.17 1139.38 0 0 -205.17zm-1027.84 101.59l0 0 0 103.58 -111.54 0 0 -103.58 111.54 0zm-215.12 0l0 0 0 1623.42 215.12 0 0 -1623.42 -215.12 0zm103.58 1521.84l0 0 111.54 0 0 101.58 -111.54 0 0 -101.58zm1549.72 -1428.22l0 0 452.17 0 0 -195.21 -452.17 0 0 195.21zm338.63 -93.62l0 0 0 -101.59 113.54 0 0 101.59 -113.54 0zm215.13 0l0 0 0 -368.51 -215.13 0 0 368.51 215.13 0zm-101.59 -266.92l0 0 -113.54 0 0 -101.59 113.54 0 0 101.59zm0 -205.17l0 0 -452.17 0 0 205.17 452.17 0 0 -205.17zm-348.59 103.58l0 0 0 101.59 -103.58 0 0 -101.59 103.58 0zm-217.12 0l0 0 0 368.51 217.12 0 0 -368.51 -217.12 0zm113.54 266.92l0 0 103.58 0 0 101.59 -103.58 0 0 -101.59zm4097.42 1396.34l0 0 790.8 0 0 -205.17 -790.8 0 0 205.17zm677.25 -101.58l0 0 0 -103.59 113.55 0 0 103.59 -113.55 0zm227.09 0l0 0 0 -256.96 -227.09 0 0 256.96 227.09 0zm-113.54 -155.38l0 0 -113.55 0 0 -101.58 113.55 0 0 101.58zm0 -205.16l0 0 -790.8 0 0 205.16 790.8 0 0 -205.16zm-689.21 103.58l0 0 0 101.58 -101.59 0 0 -101.58 101.59 0zm-215.13 0l0 0 0 256.96 215.13 0 0 -256.96 -215.13 0zm113.54 153.37l0 0 101.59 0 0 103.59 -101.59 0 0 -103.59zm-5298.56 -1756.88l0 0 790.8 0 0 -195.21 -790.8 0 0 195.21zm677.26 -103.58l0 0 0 -91.63 113.54 0 0 91.63 -113.54 0zm215.13 0l0 0 0 -647.38 -215.13 0 0 647.38 215.13 0zm-101.59 -543.8l0 0 -113.54 0 0 -103.58 113.54 0 0 103.58zm0 -205.17l0 0 -790.8 0 0 205.17 790.8 0 0 -205.17zm-687.21 101.59l0 0 0 103.58 -103.59 0 0 -103.58 103.59 0zm-217.13 0l0 0 0 647.38 217.13 0 0 -647.38 -217.13 0zm113.54 555.75l0 0 103.59 0 0 91.63 -103.59 0 0 -91.63zm2073.61 2055.68l0 0 790.8 0 0 -195.21 -790.8 0 0 195.21zm679.25 -103.59l0 0 0 -91.62 111.55 0 0 91.62 -111.55 0zm215.13 0l0 0 0 -647.37 -215.13 0 0 647.37 215.13 0zm-103.58 -543.79l0 0 -111.55 0 0 -103.58 111.55 0 0 103.58zm0 -205.17l0 0 -790.8 0 0 205.17 790.8 0 0 -205.17zm-687.22 101.59l0 0 0 103.58 -103.58 0 0 -103.58 103.58 0zm-215.13 0l0 0 0 647.37 215.13 0 0 -647.37 -215.13 0zm111.55 555.75l0 0 103.58 0 0 91.62 -103.58 0 0 -91.62zm-2073.61 195.21l0 0 790.8 0 0 -195.21 -790.8 0 0 195.21zm677.26 -103.59l0 0 0 -91.62 113.54 0 0 91.62 -113.54 0zm215.13 0l0 0 0 -647.37 -215.13 0 0 647.37 215.13 0zm-101.59 -543.79l0 0 -113.54 0 0 -103.58 113.54 0 0 103.58zm0 -205.17l0 0 -790.8 0 0 205.17 790.8 0 0 -205.17zm-687.21 101.59l0 0 0 103.58 -103.59 0 0 -103.58 103.59 0zm-217.13 0l0 0 0 647.37 217.13 0 0 -647.37 -217.13 0zm113.54 555.75l0 0 103.59 0 0 91.62 -103.59 0 0 -91.62z"/>
   <path class="fil0" d="M49184.71 790.08l-1487.97 0 0 195.21 1487.97 0 0 -195.21zm-1376.42 91.63l0 0 0 103.58 -111.55 0 0 -103.58 111.55 0zm-225.09 0l0 0 0 1274.84 225.09 0 0 -1274.84 -225.09 0zm0 1274.84l0 0 0 -103.58 113.54 0 0 103.58 -113.54 0zm113.54 -103.58l0 0 -503.96 0 0 195.21 503.96 0 0 -195.21zm-503.96 0l0 0 103.58 0 0 103.58 -103.58 0 0 -103.58zm103.58 103.58l0 0 0 -1274.84 -217.12 0 0 1274.84 217.12 0zm-103.58 -1171.26l0 0 -113.54 0 0 -103.58 113.54 0 0 103.58zm0 -195.21l0 0 -1653.31 0 0 195.21 1653.31 0 0 -195.21zm-1539.77 91.63l0 0 0 103.58 -113.54 0 0 -103.58 113.54 0zm-215.13 0l0 0 0 1623.43 215.13 0 0 -1623.43 -215.13 0zm101.59 1531.8l0 0 113.54 0 0 91.63 -113.54 0 0 -91.63zm0 195.21l0 0 1262.89 0 0 -195.21 -1262.89 0 0 195.21zm1262.89 0l0 0 -101.59 0 0 -103.58 101.59 0 0 103.58zm-101.59 -103.58l0 0 0 380.46 215.13 0 0 -380.46 -215.13 0zm0 380.46l0 0 0 -103.58 101.59 0 0 103.58 -101.59 0zm101.59 -103.58l0 0 -1262.89 0 0 207.16 1262.89 0 0 -207.16zm-1262.89 0l0 0 -328.67 0 0 207.16 328.67 0 0 -207.16zm-328.67 0l0 0 -91.63 0 0 207.16 91.63 0 0 -207.16zm-91.63 0l0 0 113.54 0 0 103.58 -113.54 0 0 -103.58zm113.54 103.58l0 0 0 -2003.89 -217.12 0 0 2003.89 217.12 0zm-113.54 -1900.31l0 0 -103.58 0 0 -103.58 103.58 0 0 103.58zm0 -195.21l0 0 -2814.61 0 0 195.21 2814.61 0 0 -195.21zm-2701.06 91.63l0 0 0 103.58 -113.55 0 0 -103.58 113.55 0zm-225.09 0l0 0 0 1089.59 225.09 0 0 -1089.59 -225.09 0zm111.54 986.01l0 0 113.55 0 0 103.58 -113.55 0 0 -103.58zm0 205.17l0 0 1623.43 11.95 0 -207.16 -1623.43 -9.96 0 205.17zm1509.89 -91.63l0 0 0 -103.58 113.54 0 0 103.58 -113.54 0zm215.13 0l0 0 21.91 -637.42 -215.13 0 -21.91 637.42 215.13 0zm21.91 -637.42l0 0 0 103.58 -113.54 0 9.96 -103.58 103.58 0zm-113.54 103.58l0 0 709.13 9.96 9.96 -195.21 -709.13 -19.92 -9.96 205.17zm709.13 9.96l0 0 -103.58 0 0 -93.62 103.58 0 0 93.62zm-103.58 -93.62l0 0 9.96 1983.97 217.12 0 -11.95 -1983.97 -215.13 0zm123.5 1882.38l0 0 103.58 0 0 101.59 -103.58 0 0 -101.59zm0 195.21l0 0 2085.56 9.96 0 -205.17 -2085.56 0 0 195.21zm2085.56 9.96l0 0 -113.54 0 0 -103.58 113.54 0 0 103.58zm-113.54 -103.58l0 0 -9.96 1850.51 215.13 0 9.96 -1850.51 -215.13 0zm101.59 1756.89l0 0 103.58 0 0 93.62 -103.58 0 0 -93.62zm0 195.21l0 0 1890.35 -19.92 0 -205.17 -1890.35 29.88 0 195.21zm1890.35 -19.92l0 0 -103.59 0 0 -101.59 103.59 0 0 101.59zm-103.59 -101.59l0 0 9.96 719.09 217.13 0 -9.96 -719.09 -217.13 0zm9.96 719.09l0 0 0 -103.58 103.59 0 0 103.58 -103.59 0zm103.59 -103.58l0 0 -687.22 0 0 205.17 687.22 0 0 -205.17zm-585.63 103.58l0 0 0 101.59 -101.59 0 0 -101.59 101.59 0zm-215.13 0l0 0 0 1458.1 225.09 0 -9.96 -1458.1 -215.13 0zm113.54 1356.51l0 0 101.59 0 9.96 101.59 -111.55 0 0 -101.59zm0 205.17l0 0 1231.01 0 0 -205.17 -1231.01 0 0 205.17zm1119.47 -103.58l0 0 0 -101.59 111.54 0 0 101.59 -111.54 0zm215.12 0l0 0 0 -306.76 -215.12 0 0 306.76 215.12 0zm-103.58 -205.17l0 0 -111.54 0 0 -101.59 111.54 0 0 101.59zm0 -205.17l0 0 -790.79 0 0 205.17 790.79 0 0 -205.17zm-790.79 0l0 0 103.58 0 0 103.58 -103.58 0 0 -103.58zm103.58 103.58l0 0 0 -750.96 -215.13 0 0 750.96 215.13 0zm0 -750.96l0 0 0 101.59 -103.58 0 0 -101.59 103.58 0zm-103.58 101.59l0 0 790.79 0 0 -205.17 -790.79 0 0 205.17zm679.25 -101.59l0 0 0 -103.58 111.54 0 0 103.58 -111.54 0zm215.12 0l0 0 0 -1489.97 -215.12 0 0 1489.97 215.12 0zm-103.58 -1388.38l0 0 -111.54 0 0 -101.59 111.54 0 0 101.59zm0 -205.17l0 0 -1991.93 0 0 205.17 1991.93 0 0 -205.17zm-1991.93 0l0 0 103.58 0 0 103.58 -103.58 0 0 -103.58zm103.58 103.58l0 0 0 -41.83 -217.12 0 0 41.83 217.12 0zm0 -41.83l0 0 0 -358.55 -217.12 0 0 358.55 217.12 0zm0 -358.55l0 0 0 -1151.34 -217.12 0 0 1151.34 217.12 0zm0 -1151.34l0 0 0 101.59 -103.58 0 0 -101.59 103.58 0zm-103.58 101.59l0 0 503.96 0 0 -205.17 -503.96 0 0 205.17zm503.96 0l0 0 -113.54 0 0 -101.59 113.54 0 0 101.59zm-113.54 -101.59l0 0 0 1151.34 225.09 0 0 -1151.34 -225.09 0zm113.54 1047.76l0 0 111.55 0 0 103.58 -111.55 0 0 -103.58zm0 205.17l0 0 1487.97 0 0 -205.17 -1487.97 0 0 205.17zm1376.43 -101.59l0 0 0 -103.58 111.54 0 0 103.58 -111.54 0zm215.12 0l0 0 0 -1521.84 -215.12 0 0 1521.84 215.12 0zm-103.58 -1418.26l0 0 -111.54 0 0 -103.58 111.54 0 0 103.58zm0 -207.16l0 0 -1139.38 0 0 207.16 1139.38 0 0 -207.16zm-1139.38 0l0 0 113.54 0 0 103.58 -113.54 0 0 -103.58zm113.54 103.58l0 0 0 -380.46 -215.13 0 0 380.46 215.13 0zm0 -380.46l0 0 0 103.58 -113.54 0 0 -103.58 113.54 0zm-113.54 103.58l0 0 1139.38 0 0 -195.21 -1139.38 0 0 195.21zm1027.84 -103.58l0 0 0 -91.63 111.54 0 0 91.63 -111.54 0zm215.12 0l0 0 0 -1623.43 -215.12 0 0 1623.43 215.12 0zm-103.58 -1519.85l0 0 -111.54 0 0 -103.58 111.54 0 0 103.58zm-1549.72 1428.22l0 0 -442.21 0 0 205.17 442.21 0 0 -205.17zm-338.63 101.59l0 0 0 103.58 -103.58 0 0 -103.58 103.58 0zm-217.12 0l0 0 0 370.5 217.12 0 0 -370.5 -217.12 0zm113.54 266.92l0 0 103.58 0 0 103.58 -103.58 0 0 -103.58zm0 207.16l0 0 442.21 0 0 -207.16 -442.21 0 0 207.16zm338.63 -103.58l0 0 0 -103.58 103.58 0 0 103.58 -103.58 0zm217.12 0l0 0 0 -370.5 -217.12 0 0 370.5 217.12 0zm-113.54 -266.92l0 0 -103.58 0 0 -103.58 103.58 0 0 103.58zm-4097.42 -1398.34l0 0 -790.8 0 0 195.21 790.8 0 0 -195.21zm-677.25 93.62l0 0 0 101.59 -113.55 0 0 -101.59 113.55 0zm-215.13 0l0 0 0 266.92 215.13 0 0 -266.92 -215.13 0zm101.58 163.34l0 0 113.55 0 0 103.58 -113.55 0 0 -103.58zm0 195.21l0 0 790.8 0 0 -195.21 -790.8 0 0 195.21zm687.22 -91.63l0 0 0 -103.58 103.58 0 0 103.58 -103.58 0zm217.12 0l0 0 0 -266.92 -217.12 0 0 266.92 217.12 0zm-113.54 -165.33l0 0 -103.58 0 0 -101.59 103.58 0 0 101.59zm5308.51 1756.89l0 0 -800.75 0 0 207.16 800.75 0 0 -207.16zm-687.21 103.58l0 0 0 103.58 -113.54 0 0 -103.58 113.54 0zm-215.13 0l0 0 0 647.38 215.13 0 0 -647.38 -215.13 0zm101.59 555.75l0 0 113.54 0 0 91.63 -113.54 0 0 -91.63zm0 195.21l0 0 800.75 0 0 -195.21 -800.75 0 0 195.21zm687.21 -103.58l0 0 0 -91.63 113.54 0 0 91.63 -113.54 0zm217.13 0l0 0 0 -647.38 -217.13 0 0 647.38 217.13 0zm-103.59 -543.8l0 0 -113.54 0 0 -103.58 113.54 0 0 103.58zm-2073.6 -2065.64l0 0 -800.76 0 0 205.17 800.76 0 0 -205.17zm-689.21 101.59l0 0 0 103.58 -111.55 0 0 -103.58 111.55 0zm-215.13 0l0 0 0 647.38 215.13 0 0 -647.38 -215.13 0zm103.58 555.75l0 0 111.55 0 0 91.63 -111.55 0 0 -91.63zm0 195.21l0 0 800.76 0 0 -195.21 -800.76 0 0 195.21zm687.22 -103.58l0 0 0 -91.63 113.54 0 0 91.63 -113.54 0zm215.13 0l0 0 0 -647.38 -215.13 0 0 647.38 215.13 0zm-101.59 -543.8l0 0 -113.54 0 0 -103.58 113.54 0 0 103.58zm2073.6 -205.17l0 0 -800.75 0 0 205.17 800.75 0 0 -205.17zm-687.21 101.59l0 0 0 103.58 -113.54 0 0 -103.58 113.54 0zm-215.13 0l0 0 0 647.38 215.13 0 0 -647.38 -215.13 0zm101.59 555.75l0 0 113.54 0 0 91.63 -113.54 0 0 -91.63zm0 195.21l0 0 800.75 0 0 -195.21 -800.75 0 0 195.21zm687.21 -103.58l0 0 0 -91.63 113.54 0 0 91.63 -113.54 0zm217.13 0l0 0 0 -647.38 -217.13 0 0 647.38 217.13 0zm-103.59 -543.8l0 0 -113.54 0 0 -103.58 113.54 0 0 103.58z"/>
   <path class="fil0" d="M811.14 790.08l1487.97 0 0 195.21 -1487.97 0 0 -195.21zm1487.97 0l0 0 113.54 0 0 91.63 -113.54 0 0 -91.63zm113.54 91.63l0 0 0 1274.84 -215.13 0 0 -1274.84 215.13 0zm-113.54 1366.47l0 0 -101.59 0 0 -91.63 101.59 0 0 91.63zm0 -195.21l0 0 513.92 0 0 195.21 -513.92 0 0 -195.21zm615.51 103.58l0 0 0 91.63 -101.59 0 0 -91.63 101.59 0zm-215.13 0l0 0 0 -1274.84 215.13 0 0 1274.84 -215.13 0zm0 -1274.84l0 0 0 -91.63 113.54 0 0 91.63 -113.54 0zm113.54 -91.63l0 0 1643.35 0 0 195.21 -1643.35 0 0 -195.21zm1643.35 0l0 0 111.55 0 0 91.63 -111.55 0 0 -91.63zm111.55 91.63l0 0 0 1623.43 -225.09 0 0 -1623.43 225.09 0zm0 1623.43l0 0 0 103.58 -111.55 0 0 -103.58 111.55 0zm-111.55 103.58l0 0 -1262.89 0 0 -195.21 1262.89 0 0 195.21zm-1376.43 -103.58l0 0 0 -91.63 113.54 0 0 91.63 -113.54 0zm225.09 0l0 0 0 380.46 -225.09 0 0 -380.46 225.09 0zm-111.55 484.04l0 0 -113.54 0 0 -103.58 113.54 0 0 103.58zm0 -207.16l0 0 1262.89 0 0 207.16 -1262.89 0 0 -207.16zm1262.89 0l0 0 338.63 0 0 207.16 -338.63 0 0 -207.16zm338.63 0l0 0 81.67 0 0 207.16 -81.67 0 0 -207.16zm185.25 103.58l0 0 0 103.58 -103.58 0 0 -103.58 103.58 0zm-217.12 0l0 0 0 -2003.89 217.12 0 0 2003.89 -217.12 0zm0 -2003.89l0 0 0 -91.63 113.54 0 0 91.63 -113.54 0zm113.54 -91.63l0 0 2814.61 0 0 195.21 -2814.61 0 0 -195.21zm2814.61 0l0 0 111.54 0 0 91.63 -111.54 0 0 -91.63zm111.54 91.63l0 0 0 1089.59 -215.13 0 0 -1089.59 215.13 0zm0 1089.59l0 0 0 101.59 -111.54 0 0 -101.59 111.54 0zm-111.54 101.59l0 0 -1613.47 11.95 0 -207.16 1613.47 -9.96 0 205.17zm-1613.47 11.95l0 0 -113.54 0 0 -103.58 113.54 0 0 103.58zm-113.54 -103.58l0 0 -19.92 -637.42 215.13 0 21.91 637.42 -217.12 0zm83.66 -739.01l0 0 111.55 0 0 101.59 -101.59 0 -9.96 -101.59zm9.96 205.17l0 0 -709.13 9.96 0 -195.21 699.17 -19.92 9.96 205.17zm-822.67 -83.66l0 0 0 -101.59 113.54 0 0 101.59 -113.54 0zm217.12 0l0 0 -9.96 1983.97 -217.12 0 9.96 -1983.97 217.12 0zm-9.96 1983.97l0 0 0 93.62 -103.58 0 0 -93.62 103.58 0zm-103.58 93.62l0 0 -2095.52 9.96 0 -205.17 2095.52 0 0 195.21zm-2197.11 -93.62l0 0 0 -101.59 101.59 0 0 101.59 -101.59 0zm215.13 0l0 0 9.96 1850.51 -215.13 0 -9.96 -1850.51 215.13 0zm9.96 1850.51l0 0 0 101.59 -111.55 0 9.96 -101.59 101.59 0zm-111.55 101.59l0 0 -1890.35 -19.92 0 -205.17 1900.31 29.88 -9.96 195.21zm-2003.89 -121.51l0 0 11.96 -103.58 101.58 0 0 103.58 -113.54 0zm217.13 0l0 0 -11.96 719.09 -215.13 0 9.96 -719.09 217.13 0zm-113.55 820.68l0 0 -113.54 -9.96 0 -91.63 113.54 0 0 101.59zm0 -205.17l0 0 697.18 0 0 205.17 -697.18 0 0 -205.17zm697.18 0l0 0 103.58 0 0 103.58 -103.58 0 0 -103.58zm103.58 103.58l0 0 0 1458.1 -215.13 0 0 -1458.1 215.13 0zm0 1458.1l0 0 0 103.58 -113.54 0 0 -103.58 113.54 0zm-113.54 103.58l0 0 -1231.01 0 0 -205.17 1231.01 0 0 205.17zm-1231.01 0l0 0 -103.58 0 0 -103.58 103.58 0 0 103.58zm-103.58 -103.58l0 0 0 -306.76 215.12 0 0 306.76 -215.12 0zm0 -306.76l0 0 0 -103.58 103.58 0 0 103.58 -103.58 0zm103.58 -103.58l0 0 800.75 0 0 205.17 -800.75 0 0 -205.17zm902.34 103.58l0 0 0 101.59 -101.59 0 0 -101.59 101.59 0zm-215.13 0l0 0 0 -750.96 215.13 0 0 750.96 -215.13 0zm113.54 -854.54l0 0 101.59 0 0 103.58 -101.59 0 0 -103.58zm0 205.17l0 0 -800.75 0 0 -205.17 800.75 0 0 205.17zm-800.75 0l0 0 -103.58 0 0 -101.59 103.58 0 0 101.59zm-103.58 -101.59l0 0 0 -1499.93 215.12 0 0 1499.93 -215.12 0zm0 -1499.93l0 0 0 -103.58 103.58 0 0 103.58 -103.58 0zm103.58 -103.58l0 0c318.71,0 687.21,0 1035.8,9.96l0 195.21c-316.71,0 -635.42,0 -1035.8,0l0 -205.17zm1035.8 9.96l0 0c298.79,0 595.59,0 966.09,0l0 205.17c-286.84,0 -627.46,0 -966.09,-9.96l0 -195.21zm1067.68 103.58l0 0 0 101.59 -101.59 0 0 -101.59 101.59 0zm-215.13 0l0 0 0 -41.83 215.13 0 0 41.83 -215.13 0zm0 -41.83l0 0 0 -358.55 215.13 0 0 358.55 -215.13 0zm0 -358.55l0 0 0 -1151.34 215.13 0 0 1151.34 -215.13 0zm113.54 -1254.92l0 0 101.59 0 0 103.58 -101.59 0 0 -103.58zm0 205.17l0 0 -513.92 0 0 -205.17 513.92 0 0 205.17zm-615.51 -101.59l0 0 0 -103.58 101.59 0 0 103.58 -101.59 0zm215.13 0l0 0 0 1151.34 -215.13 0 0 -1151.34 215.13 0zm0 1151.34l0 0 0 101.59 -113.54 0 0 -101.59 113.54 0zm-113.54 101.59l0 0 -1487.97 0 0 -205.17 1487.97 0 0 205.17zm-1487.97 0l0 0 -103.58 0 0 -101.59 103.58 0 0 101.59zm-103.58 -101.59l0 0 0 -1521.84 215.12 0 0 1521.84 -215.12 0zm0 -1521.84l0 0 0 -103.58 103.58 0 0 103.58 -103.58 0zm103.58 -103.58l0 0 1139.38 0 0 207.16 -1139.38 0 0 -207.16zm1240.97 103.58l0 0 0 103.58 -101.59 0 0 -103.58 101.59 0zm-215.13 0l0 0 0 -380.46 215.13 0 0 380.46 -215.13 0zm113.54 -472.09l0 0 101.59 0 0 91.63 -101.59 0 0 -91.63zm0 195.21l0 0 -1139.38 0 0 -195.21 1139.38 0 0 195.21zm-1139.38 0l0 0 -103.58 0 0 -103.58 103.58 0 0 103.58zm-103.58 -103.58l0 0 0 -1623.43 215.12 0 0 1623.43 -215.12 0zm0 -1623.43l0 0 0 -91.63 103.58 0 0 91.63 -103.58 0zm1653.3 1531.8l0 0 452.17 0 0 205.17 -452.17 0 0 -205.17zm452.17 0l0 0 101.59 0 0 101.59 -101.59 0 0 -101.59zm101.59 101.59l0 0 0 370.5 -215.13 0 0 -370.5 215.13 0zm0 370.5l0 0 0 103.58 -101.59 0 0 -103.58 101.59 0zm-101.59 103.58l0 0 -452.17 0 0 -207.16 452.17 0 0 207.16zm-452.17 0l0 0 -113.54 0 0 -103.58 113.54 0 0 103.58zm-113.54 -103.58l0 0 0 -370.5 217.12 0 0 370.5 -217.12 0zm0 -370.5l0 0 0 -101.59 113.54 0 0 101.59 -113.54 0zm4210.96 -1294.76l0 0 790.8 0 0 195.21 -790.8 0 0 -195.21zm790.8 0l0 0 113.54 0 0 93.62 -113.54 0 0 -93.62zm113.54 93.62l0 0 0 266.92 -227.09 0 0 -266.92 227.09 0zm0 266.92l0 0 0 91.63 -113.54 0 0 -91.63 113.54 0zm-113.54 91.63l0 0 -790.8 0 0 -195.21 790.8 0 0 195.21zm-790.8 0l0 0 -113.54 0 0 -91.63 113.54 0 0 91.63zm-113.54 -91.63l0 0 0 -266.92 215.13 0 0 266.92 -215.13 0zm0 -266.92l0 0 0 -93.62 113.54 0 0 93.62 -113.54 0zm-5185.02 1858.48l0 0 790.8 0 0 207.16 -790.8 0 0 -207.16zm790.8 0l0 0 101.59 0 0 103.58 -101.59 0 0 -103.58zm101.59 103.58l0 0 0 647.38 -215.13 0 0 -647.38 215.13 0zm0 647.38l0 0 0 103.58 -101.59 0 0 -103.58 101.59 0zm-101.59 103.58l0 0 -790.8 0 0 -195.21 790.8 0 0 195.21zm-790.8 0l0 0 -113.54 0 0 -103.58 113.54 0 0 103.58zm-113.54 -103.58l0 0 0 -647.38 217.13 0 0 647.38 -217.13 0zm0 -647.38l0 0 0 -103.58 113.54 0 0 103.58 -113.54 0zm2187.15 -1962.06l0 0 790.8 0 0 205.17 -790.8 0 0 -205.17zm790.8 0l0 0 103.58 0 0 101.59 -103.58 0 0 -101.59zm103.58 101.59l0 0 0 647.38 -215.13 0 0 -647.38 215.13 0zm0 647.38l0 0 0 103.58 -103.58 0 0 -103.58 103.58 0zm-103.58 103.58l0 0 -790.8 0 0 -195.21 790.8 0 0 195.21zm-790.8 0l0 0 -111.55 0 0 -103.58 111.55 0 0 103.58zm-111.55 -103.58l0 0 0 -647.38 215.13 0 0 647.38 -215.13 0zm0 -647.38l0 0 0 -101.59 111.55 0 0 101.59 -111.55 0zm-1962.06 -101.59l0 0 790.8 0 0 205.17 -790.8 0 0 -205.17zm790.8 0l0 0 101.59 0 0 101.59 -101.59 0 0 -101.59zm101.59 101.59l0 0 0 647.38 -215.13 0 0 -647.38 215.13 0zm0 647.38l0 0 0 103.58 -101.59 0 0 -103.58 101.59 0zm-101.59 103.58l0 0 -790.8 0 0 -195.21 790.8 0 0 195.21zm-790.8 0l0 0 -113.54 0 0 -103.58 113.54 0 0 103.58zm-113.54 -103.58l0 0 0 -647.38 217.13 0 0 647.38 -217.13 0zm0 -647.38l0 0 0 -101.59 113.54 0 0 101.59 -113.54 0z"/>
   <polygon class="fil0" points="49184.71,7335.59 49184.71,42636.69 48660.83,42636.69 48660.83,7335.59 "/>
   <polygon class="fil0" points="42223.65,881.71 7659.42,881.71 7659.42,1385.67 42223.65,1385.67 "/>
   <polygon class="fil0" points="1344.98,7335.59 1344.98,42636.69 821.1,42636.69 821.1,7335.59 "/>
  </g>
 </g>
</svg>
