<?xml version="1.0" encoding="UTF-8"?>
<!DOCTYPE svg PUBLIC "-//W3C//DTD SVG 1.1//EN" "http://www.w3.org/Graphics/SVG/1.1/DTD/svg11.dtd">
<!-- Creator: CorelDRAW 2021 (64-Bit) -->
<svg xmlns="http://www.w3.org/2000/svg" xml:space="preserve" width="13.5466mm" height="13.5466mm" version="1.1" style="shape-rendering:geometricPrecision; text-rendering:geometricPrecision; image-rendering:optimizeQuality; fill-rule:evenodd; clip-rule:evenodd"
viewBox="0 0 1354.66 1354.66"
 xmlns:xlink="http://www.w3.org/1999/xlink"
 xmlns:xodm="http://www.corel.com/coreldraw/odm/2003">
 <defs>
  <style type="text/css">
   <![CDATA[
    .fil0 {fill:#010101}
   ]]>
  </style>
 </defs>
 <g id="图层_x0020_1">
  <metadata id="CorelCorpID_0Corel-Layer"/>
  <g id="_2923701318064">
   <path class="fil0" d="M27.03 78.5c-9.5,-41.16 38.48,-56.5 65.73,-35.68 13.43,10.27 16.81,23.21 28.6,33.05 10.82,9.02 26.53,16.96 46.99,14.54 39.56,-4.66 44.39,-37.13 73.46,-49.85 52.26,-22.88 69.47,57.91 126.99,51.73 53.46,-5.74 68.76,-79.23 123.73,-48.48 24.4,13.65 37.61,45.51 74.98,48 61.29,4.1 71.17,-71.79 125.95,-50.24 14.6,5.75 23.51,16.77 32.87,28.87l16 11.32c46.84,27.73 76.75,-3.47 104.04,-29.22 10.56,-9.96 25.85,-18.07 45.92,-14.49 31.67,5.65 40.42,39.07 72.87,50.31 42.42,14.69 67.02,-13.07 85.21,-30.5 57.83,-55.43 80.93,13.17 115.53,28.56 15.85,7.06 36.68,5.72 52.03,-1.49 31.72,-14.9 29.44,-53.92 72.37,-51.83 43.06,2.09 48.7,49.04 22.89,71.77 -87.62,77.15 41.93,92.4 23,159.97 -10.48,37.39 -80.33,58.83 -57.3,119.56 5.83,15.41 17.68,25.51 27.09,34.61 18.38,17.77 46.45,47.37 17.56,83.28 -14.35,17.84 -50.03,38.32 -48.75,74.62 1.29,36.8 42.53,62.64 50.22,73.11 25.6,34.89 -6.42,65.2 -22.74,81.08 -23.79,23.13 -39.36,52.91 -16.22,84.62 21.18,29.03 50.04,39.88 49.24,74.64 -0.41,17.74 -13.13,33.25 -21.28,40.86 -40.76,38.01 -59.88,74.13 -13.33,119.94 17.12,16.85 49.4,42.74 30.63,82.35 -12.42,26.22 -48.4,39.05 -47.61,75.3 0.85,38.85 45.46,42.43 45.24,77.17 -0.24,37.88 -49.75,43.29 -73.14,22.42 -2.61,-2.32 -11.24,-13.45 -13.67,-17.13 -5.03,-7.63 -8.22,-11.34 -14.4,-16.47 -11.19,-9.29 -30,-15.48 -48.16,-12.04 -40.03,7.57 -40.07,40.09 -71.96,51.34 -61.11,21.55 -74.94,-83.19 -149.32,-46.65 -29.35,14.42 -49.81,66.83 -99.43,43.97 -23.59,-10.86 -60.59,-81.05 -122.09,-35.88 -23.43,17.21 -12.8,16.43 -28.99,29.14 -34.29,26.89 -64.57,1.8 -81.98,-17.09 -44.13,-47.87 -82.74,-25.68 -119.18,11.2 -9.24,9.35 -24.08,19.32 -43.58,17.95 -36.25,-2.54 -46.38,-36.92 -73.49,-49.84 -40.83,-19.44 -65.98,6.25 -85.52,24.54 -9.12,8.52 -19.59,20.55 -37.37,24.37 -36.86,7.9 -54.86,-32.65 -76.18,-45.07 -13.76,-8.01 -33.1,-11.38 -49.84,-5.67 -36.38,12.4 -32.14,49.31 -67.58,55.7 -39.56,7.13 -61.97,-33.74 -34.98,-62.34 9.12,-9.67 21.31,-18.53 29.11,-32.6 29.77,-53.73 -58.84,-68.39 -49.43,-124.66 5.09,-30.47 34.99,-41.25 52.91,-70.5 20.84,-34.03 5.93,-63.7 -17.92,-88.05 -16.63,-16.97 -50.23,-44.15 -25.11,-81.73 16.16,-24.17 94.96,-69.08 21.77,-134.18 -16.81,-14.97 -35.78,-37.09 -27.36,-63.29 8.04,-25.07 84.96,-61.33 48.24,-118.56 -17.43,-27.15 -50.4,-40.43 -51.02,-72.42 -0.64,-33.11 35.96,-55.12 49.19,-74.27 39.46,-57.12 -25.03,-91.13 -43.9,-119.3 -9.53,-14.24 -10.4,-33.87 -2.59,-50.48 13.56,-28.8 48.43,-39.29 50.16,-72.89 2.05,-39.66 -37.82,-45.46 -45.1,-77zm25.3 -56.86c-48.43,11.72 -50.4,64.64 -16.76,92.05 71.31,58.11 -31.34,75.64 -31.34,137.8 0.01,24.81 17.03,45.38 33.38,58.82 16.7,13.72 34.91,37.26 28.74,63.4 -4.08,17.27 -16.89,28.64 -25.84,37.63 -40.4,40.6 -50.55,76.59 1.81,118.63 7.58,6.09 22.33,22.89 24.41,38.98 4.73,36.67 -34.2,56.64 -47.72,76.09 -24.57,35.35 -1.28,69.12 18.48,86.75 60.69,54.13 14.67,83.83 -12.99,113.98 -9.9,10.79 -19.25,26.56 -17.8,46.35 3.8,51.55 79.68,66.04 57.54,123.6 -6.82,17.73 -16.34,23.59 -27.77,35.54 -9.74,10.2 -20.41,18.2 -26.96,34.71 -27.65,69.73 64.48,83.31 49.49,128.32 -9.23,27.72 -50.45,37.94 -45.69,77.68 3.97,33.17 42.31,54.12 77.31,36.13 29.28,-15.04 29.21,-56.32 70.96,-54.63 36.41,1.48 43.12,38.04 74.97,50.57 36.9,14.51 60.08,-8.21 83.9,-31.61 27.67,-27.18 57.62,-26.48 84.35,0.37 10.9,10.94 16.96,19.92 32.76,28.9 14.77,8.38 34.75,9.75 52.01,2.87 30.08,-11.99 42.12,-45.91 74.44,-50.94 20,-3.11 36.94,6.07 47.3,14.76 6.64,5.56 19.03,22.09 32.75,30.6 13.81,8.56 31.41,11.72 48.66,6.6 40.13,-11.89 59.94,-85.77 121.92,-36.74 19.21,15.19 39.77,50.3 83.59,38.45 33.75,-9.14 42.27,-42.19 72.69,-52.29 39.68,-13.17 63.2,24.31 80.86,38.74 31.83,26.01 60.81,16.98 87.4,-7.56 10.41,-9.61 16.55,-22.38 32.67,-28.99 17.97,-7.38 37.64,-2.99 49.61,7.3 16.79,14.42 29.52,55.91 75.46,49.35 39.86,-5.69 55.74,-43.61 38.16,-72.17 -12.02,-19.51 -59.4,-40.92 -29.82,-78.86 16.62,-21.32 48.51,-37.76 44.02,-79.73 -3.96,-37.02 -36.32,-50.49 -51.76,-72.74 -25.39,-36.58 -0.92,-66.33 19.22,-84.42 18.58,-16.69 43.68,-47.61 24.17,-85.7 -6.11,-11.93 -19.16,-24.3 -28.87,-32.81 -8.5,-7.46 -21.87,-21.9 -23.72,-39.79 -5.23,-50.74 75.46,-67.13 56.07,-126.15 -4.98,-15.16 -17.98,-26.84 -27.73,-35.68 -19.13,-17.35 -46.34,-51.93 -15.27,-83.97 22.17,-22.87 49.84,-41.27 46.31,-77.79 -3.03,-31.35 -37.93,-53.04 -51.54,-72.9 -24.04,-35.07 5.32,-68.46 23.34,-82.95 45.78,-36.81 37.95,-81.63 -5.17,-120.15 -9.6,-8.58 -23.3,-22.64 -17.92,-43.35 7.35,-28.35 48.86,-35.32 45.37,-79.9 -2.6,-33.05 -40.44,-54.46 -76.3,-40.17 -34.17,13.63 -29.69,50.64 -69.87,54.77 -40.39,4.16 -47.24,-31.37 -76.94,-46.85 -22.15,-11.54 -51.53,-6.16 -68.17,10.07 -6.73,6.56 -11.05,8.14 -17.18,15.32 -21.22,24.79 -57.96,31.55 -85.66,5.2 -17.55,-16.7 -40.85,-48.01 -84.13,-34.52 -32.69,10.18 -39.95,42.62 -74.68,50.36 -40.27,8.97 -59.24,-27.73 -80.13,-42.38 -35.27,-24.75 -70.12,-1.19 -87.75,18.35 -21.36,23.67 -51.99,37.2 -85.4,10.93 -18.93,-14.9 -38.68,-49.11 -82.48,-38.49 -37.05,8.98 -43.06,41.25 -74.14,50.96 -19.77,6.16 -36.46,0 -48.73,-9.23l-33.6 -29.78c-19.36,-15.53 -46.53,-18.53 -68.96,-4.35 -14.99,9.46 -32.43,36.96 -51.76,42.46 -19.61,5.58 -35.53,-0.04 -47.16,-10.64 -13.16,-11.98 -31.8,-55.96 -76.41,-45.16z"/>
   <path class="fil0" d="M1321.62 343.77c-11.77,4.84 -17.09,13.48 -11.82,26.76 3.59,9.02 15.37,15.2 27.55,10.37 21.74,-8.62 9.92,-47.67 -15.73,-37.13z"/>
   <path class="fil0" d="M19.67 343.53c-25.31,9.63 -13.05,46.57 13.39,38.13 24.41,-7.79 12.21,-47.87 -13.39,-38.13z"/>
   <path class="fil0" d="M52.37 230.69c-26.15,13.73 -7.13,46.89 17.04,36.54 23.76,-10.18 6.08,-48.68 -17.04,-36.54z"/>
   <path class="fil0" d="M1290.42 1091.9c-26.63,6.15 -16.22,46.13 10.82,38.93 23.38,-6.23 15.7,-45.05 -10.82,-38.93z"/>
   <path class="fil0" d="M1323.24 979.02c-26.65,8.48 -15.68,44.81 10.52,38.82 24.17,-5.53 15.7,-47.15 -10.52,-38.82z"/>
   <path class="fil0" d="M1287.29 230.7c-24.7,10.68 -9.89,46.61 15.81,37.14 21.95,-8.09 10.35,-48.45 -15.81,-37.14z"/>
   <path class="fil0" d="M55.09 1091.62c-26.06,5.98 -16.57,45.05 9.58,39.19 23.85,-5.34 17.76,-45.45 -9.58,-39.19z"/>
   <path class="fil0" d="M19.67 978.96c-25.97,9.56 -12.2,46.77 14.27,37.27 23.44,-8.4 10.27,-46.3 -14.27,-37.27z"/>
   <path class="fil0" d="M51.54 452.87c-22.48,10.93 -8.05,46.65 17.24,36.45 24.81,-10 6.78,-48.13 -17.24,-36.45z"/>
   <path class="fil0" d="M1322.48 764.54c-24.18,8.96 -11.29,47.58 14.76,37.51 21.64,-8.38 12.01,-47.43 -14.76,-37.51z"/>
   <path class="fil0" d="M52.92 869.94c-26.44,10.88 -8.51,47.31 16.31,35.98 22.01,-10.04 9.07,-46.42 -16.31,-35.98z"/>
   <path class="fil0" d="M55.2 654.94c-25.44,6.79 -15.9,45.18 11.73,38.16 22.79,-5.78 15.13,-45.34 -11.73,-38.16z"/>
   <path class="fil0" d="M1279.66 1261.26c-25,8.91 -11.98,45.11 13.35,37.94 24.44,-6.92 11.82,-46.91 -13.35,-37.94z"/>
   <path class="fil0" d="M1323.87 555.3c-23.51,6.36 -16.8,43.57 10.37,38.24 24.28,-4.77 17.89,-45.88 -10.37,-38.24z"/>
   <path class="fil0" d="M1290.32 655.09c-27.32,6.99 -15.97,44.33 9.95,38.39 24.04,-5.51 15.64,-44.95 -9.95,-38.39z"/>
   <path class="fil0" d="M1290.68 451.52c-28.31,6.46 -16.08,45 8.85,38.73 23.5,-5.9 16.7,-44.57 -8.85,-38.73z"/>
   <path class="fil0" d="M16.13 764.98c-23.22,12.3 -5.14,46.94 17.99,35.64 23.2,-11.35 5.5,-48.08 -17.99,-35.64z"/>
   <path class="fil0" d="M878.31 1258.33c-10.9,2.52 -19.09,9.8 -15.82,23.64 2.27,9.58 11.68,17.31 24.94,14.23 22.16,-5.14 16.7,-43.84 -9.12,-37.87z"/>
   <path class="fil0" d="M1290.06 869c-23.96,5.91 -16.14,45.47 11.44,37.81 22.79,-6.32 15.05,-44.34 -11.44,-37.81z"/>
   <path class="fil0" d="M58.87 1263.31c-23.98,12.28 -5.02,47.49 18.53,34.43 22.6,-12.54 3.89,-45.91 -18.53,-34.43z"/>
   <path class="fil0" d="M58.54 57.28c-22.58,10.61 -6.36,46.74 18.51,34.37 22.72,-11.3 5.76,-45.78 -18.51,-34.37z"/>
   <path class="fil0" d="M250.14 1259.52c-22.23,10.54 -6.19,47.95 18.85,34.55 20.76,-11.1 5.78,-46.24 -18.85,-34.55z"/>
   <path class="fil0" d="M17.85 555.92c-24.62,10.51 -8.39,46.59 15.26,36.51 22.37,-9.54 8.97,-46.86 -15.26,-36.51z"/>
   <path class="fil0" d="M667.36 1260.14c-24.95,12.89 -4.74,46.58 18.06,34.2 22.75,-12.35 4.39,-45.8 -18.06,-34.2z"/>
   <path class="fil0" d="M1276.67 57.63c-24.35,11.77 -5.92,46.3 18.21,34.13 21.45,-10.83 6.03,-45.84 -18.21,-34.13z"/>
   <path class="fil0" d="M1088.62 1258.15c-27.02,5.49 -19.11,43.07 7.53,37.69 24.67,-4.98 16.64,-42.6 -7.53,-37.69z"/>
   <path class="fil0" d="M459.47 1259.79c-23.5,12.93 -5.69,46.05 18.16,34 22.95,-11.6 3.78,-46.07 -18.16,-34z"/>
   <path class="fil0" d="M966.77 1315.09c5.15,21.84 45.1,16.54 38.7,-9.71 -5.09,-20.86 -45.12,-17.54 -38.7,9.71z"/>
   <path class="fil0" d="M668.47 57.32c-24.91,8.71 -11.04,43.4 14.91,34.44 24,-8.29 9.35,-42.91 -14.91,-34.44z"/>
   <path class="fil0" d="M977.16 26.96c-25.71,11.52 -4.19,44.81 18.55,32.78 20.9,-11.07 5.76,-43.68 -18.55,-32.78z"/>
   <path class="fil0" d="M345.16 1315.09c4.74,20.45 45.44,17.11 38.59,-9.7 -2.24,-8.8 -14.35,-15.74 -24.59,-13.68 -9.58,1.92 -16.7,11.69 -14,23.38z"/>
   <path class="fil0" d="M877.3 57.17c-25.53,6.01 -15.77,41.01 9.7,35.84 25.97,-5.27 16.23,-41.96 -9.7,-35.84z"/>
   <path class="fil0" d="M463.27 57.52c-28.41,8.92 -12.18,42.77 11.96,34.89 24.81,-8.1 11.27,-42.18 -11.96,-34.89z"/>
   <path class="fil0" d="M177.32 1315.09c4.06,-11.95 -3.82,-21.03 -12.99,-23.38 -10.85,-2.78 -22.2,2.64 -24.75,11.89 -6.92,25.02 29.97,34.31 37.74,11.49z"/>
   <path class="fil0" d="M1184.52 27.09c-25.83,11.92 -7.57,43.43 15.14,34.63 21.54,-8.34 9.44,-45.98 -15.14,-34.63z"/>
   <path class="fil0" d="M1174.56 1316.8c7.66,20.28 44.14,13.16 36.58,-13.22 -6.08,-21.23 -46.71,-13.64 -36.58,13.22z"/>
   <path class="fil0" d="M152.92 26.49c-23.33,8.78 -11.42,42.74 14.09,35.19 23.42,-6.93 10.85,-44.58 -14.09,-35.19z"/>
   <path class="fil0" d="M356.73 26.61c-23.09,10.53 -8.32,43.26 16.39,33.99 22.67,-8.5 8.23,-45.21 -16.39,-33.99z"/>
   <path class="fil0" d="M767.96 26.62c-23.74,9.76 -9.47,43.56 15.95,33.81 20.67,-7.93 10.26,-44.58 -15.95,-33.81z"/>
   <path class="fil0" d="M593.92 1316.8c8.44,-24.65 -28.84,-33.6 -36.9,-13.75 -10.23,25.18 29.38,35.7 36.9,13.75z"/>
   <path class="fil0" d="M255.47 57.08c-26.32,5.86 -16.47,41.82 9.53,35.68 24.99,-5.91 14.86,-41.1 -9.53,-35.68z"/>
   <path class="fil0" d="M566.71 27.58c-5.47,2.69 -7.16,0.54 -10.05,9.31 -6.56,19.94 14.14,28.7 28.1,22.91 20.18,-8.37 7.94,-44.97 -18.05,-32.22z"/>
   <path class="fil0" d="M1086.7 57.54c-27.42,7.54 -14.12,42.05 10.74,35.38 25.06,-6.72 12.22,-41.71 -10.74,-35.38z"/>
   <path class="fil0" d="M756.08 1315.09c4.58,21.98 44.35,16.89 37.61,-10 -5.11,-20.41 -43.24,-16.94 -37.61,10z"/>
   <path class="fil0" d="M19.7 132.89c-25.8,9.22 -11.41,43.32 12.36,35.37 23.64,-7.9 10.95,-43.71 -12.36,-35.37z"/>
   <path class="fil0" d="M1311.27 1210.61c5.77,19.84 42.25,15.91 37.45,-10.08 -4.3,-23.32 -45.18,-16.48 -37.45,10.08z"/>
   <path class="fil0" d="M1324.65 132.81c-26.24,7.9 -14.21,43.07 10.83,35.52 21.9,-6.6 14.22,-43.06 -10.83,-35.52z"/>
   <path class="fil0" d="M17.71 1187.85c-23.64,9.82 -8.6,43.12 14.71,34.29 21.48,-8.14 10.13,-44.61 -14.71,-34.29z"/>
  </g>
 </g>
</svg>
