<?xml version="1.0" encoding="UTF-8"?>
<!DOCTYPE svg PUBLIC "-//W3C//DTD SVG 1.1//EN" "http://www.w3.org/Graphics/SVG/1.1/DTD/svg11.dtd">
<!-- Creator: CorelDRAW 2021 (64-Bit) -->
<svg xmlns="http://www.w3.org/2000/svg" xml:space="preserve" width="19.5964mm" height="8.8771mm" version="1.1" style="shape-rendering:geometricPrecision; text-rendering:geometricPrecision; image-rendering:optimizeQuality; fill-rule:evenodd; clip-rule:evenodd"
viewBox="0 0 34.89 15.81"
 xmlns:xlink="http://www.w3.org/1999/xlink"
 xmlns:xodm="http://www.corel.com/coreldraw/odm/2003">
 <defs>
  <style type="text/css">
   <![CDATA[
    .fil0 {fill:black;fill-rule:nonzero}
   ]]>
  </style>
 </defs>
 <g id="图层_x0020_1">
  <metadata id="CorelCorpID_0Corel-Layer"/>
  <path class="fil0" d="M1.23 15.81l-1.23 -11.49 1.4 -0.72 8.83 7.6 -1.45 0.74 -2.6 -2.34 -4.05 2.07 0.45 3.45 -1.35 0.69zm0.74 -5.36l3.27 -1.68 -2.37 -2.15c-0.72,-0.66 -1.29,-1.21 -1.72,-1.65 0.19,0.69 0.33,1.4 0.42,2.12l0.39 3.36zm10.27 0.45l-0.27 -10.79 4.05 -0.1c0.82,-0.02 1.49,0.07 1.99,0.28 0.5,0.21 0.9,0.53 1.19,0.98 0.3,0.44 0.45,0.92 0.46,1.41 0.01,0.46 -0.1,0.9 -0.34,1.31 -0.24,0.41 -0.61,0.75 -1.11,1.02 0.66,0.17 1.17,0.49 1.53,0.94 0.36,0.45 0.55,0.99 0.57,1.62 0.01,0.51 -0.08,0.98 -0.29,1.42 -0.2,0.44 -0.46,0.78 -0.77,1.02 -0.31,0.24 -0.7,0.43 -1.17,0.56 -0.47,0.13 -1.05,0.21 -1.74,0.22l-4.12 0.1zm1.27 -6.29l2.33 -0.06c0.63,-0.02 1.09,-0.07 1.36,-0.16 0.36,-0.12 0.63,-0.31 0.81,-0.56 0.18,-0.26 0.26,-0.57 0.25,-0.95 -0.01,-0.36 -0.1,-0.67 -0.28,-0.94 -0.18,-0.27 -0.43,-0.45 -0.75,-0.54 -0.32,-0.09 -0.87,-0.13 -1.64,-0.11l-2.16 0.05 0.08 3.27zm0.13 4.99l2.69 -0.07c0.46,-0.01 0.79,-0.04 0.97,-0.08 0.33,-0.07 0.6,-0.17 0.82,-0.31 0.22,-0.14 0.39,-0.35 0.53,-0.62 0.14,-0.27 0.2,-0.57 0.19,-0.92 -0.01,-0.4 -0.12,-0.75 -0.34,-1.04 -0.21,-0.29 -0.5,-0.49 -0.87,-0.61 -0.37,-0.11 -0.9,-0.16 -1.58,-0.14l-2.5 0.06 0.09 3.72zm18.19 1.9l1.11 0.97c-0.8,0.91 -1.69,1.46 -2.66,1.65 -0.97,0.19 -1.96,0.04 -2.96,-0.48 -1.03,-0.53 -1.77,-1.17 -2.2,-1.92 -0.43,-0.75 -0.61,-1.62 -0.54,-2.59 0.07,-0.97 0.34,-1.92 0.81,-2.83 0.51,-1 1.15,-1.77 1.91,-2.32 0.76,-0.55 1.6,-0.84 2.5,-0.86 0.9,-0.03 1.78,0.18 2.62,0.61 0.96,0.49 1.64,1.15 2.05,1.97 0.4,0.83 0.51,1.75 0.31,2.76l-1.4 -0.34c0.14,-0.81 0.07,-1.49 -0.19,-2.02 -0.26,-0.54 -0.71,-0.97 -1.35,-1.3 -0.74,-0.38 -1.44,-0.52 -2.12,-0.42 -0.68,0.1 -1.27,0.4 -1.77,0.89 -0.51,0.49 -0.92,1.06 -1.25,1.69 -0.42,0.82 -0.66,1.59 -0.74,2.32 -0.08,0.73 0.06,1.37 0.41,1.93 0.35,0.56 0.81,0.99 1.39,1.28 0.71,0.36 1.42,0.47 2.12,0.31 0.7,-0.16 1.35,-0.6 1.94,-1.32z"/>
 </g>
</svg>
